<?xml version="1.0" encoding="utf-8" standalone="no"?>
<!DOCTYPE svg PUBLIC "-//W3C//DTD SVG 1.1//EN"
  "http://www.w3.org/Graphics/SVG/1.1/DTD/svg11.dtd">
<svg xmlns:xlink="http://www.w3.org/1999/xlink" width="572.4pt" height="180.72pt" viewBox="0 0 572.4 180.72" xmlns="http://www.w3.org/2000/svg" version="1.1">
 <metadata>
  <rdf:RDF xmlns:dc="http://purl.org/dc/elements/1.1/" xmlns:cc="http://creativecommons.org/ns#" xmlns:rdf="http://www.w3.org/1999/02/22-rdf-syntax-ns#">
   <cc:Work>
    <dc:type rdf:resource="http://purl.org/dc/dcmitype/StillImage"/>
    <dc:date>2026-10-10T04:41:50.514894</dc:date>
    <dc:format>image/svg+xml</dc:format>
    <dc:creator>
     <cc:Agent>
      <dc:title>Matplotlib v3.10.8, https://matplotlib.org/</dc:title>
     </cc:Agent>
    </dc:creator>
   </cc:Work>
  </rdf:RDF>
 </metadata>
 <defs>
  <style type="text/css">*{stroke-linejoin: round; stroke-linecap: butt}</style>
 </defs>
 <g id="figure_1">
  <g id="patch_1">
   <path d="M 0 180.72 
L 572.4 180.72 
L 572.4 0 
L 0 0 
z
" style="fill: #ffffff"/>
  </g>
  <g id="axes_1">
   <g id="text_1">
    <g id="patch_2">
     <path d="M 18.36 108.407563 
L 90.499375 108.407563 
Q 98.199375 108.407563 98.199375 100.707563 
L 98.199375 63.380438 
Q 98.199375 55.680438 90.499375 55.680438 
L 18.36 55.680438 
Q 10.66 55.680438 10.66 63.380438 
L 10.66 100.707563 
Q 10.66 108.407563 18.36 108.407563 
z
" style="fill: #e8f2f7; stroke: #156b99; stroke-linejoin: miter"/>
    </g>
    <!-- 模型输入 -->
    <g transform="translate(18.36 72.13575) scale(0.11 -0.11)">
     <defs>
      <path id="NotoSansCJKjp-Regular-6a21" d="M 3021 2669 
L 5248 2669 
L 5248 2208 
L 3021 2208 
L 3021 2669 
z
M 3021 3469 
L 5248 3469 
L 5248 3021 
L 3021 3021 
L 3021 3469 
z
M 4685 5376 
L 4685 4845 
L 3699 4845 
L 3699 5376 
L 3245 5376 
L 3245 4845 
L 2304 4845 
L 2304 4435 
L 3245 4435 
L 3245 3955 
L 3699 3955 
L 3699 4435 
L 4685 4435 
L 4685 3955 
L 5152 3955 
L 5152 4435 
L 6048 4435 
L 6048 4845 
L 5152 4845 
L 5152 5376 
L 4685 5376 
z
M 2573 3834 
L 2573 1850 
L 3878 1850 
C 3853 1658 3827 1485 3782 1318 
L 2176 1318 
L 2176 909 
L 3642 909 
C 3398 416 2938 77 1997 -128 
C 2086 -224 2208 -403 2253 -512 
C 3366 -243 3885 218 4141 896 
C 4461 192 5056 -288 5888 -512 
C 5952 -390 6080 -211 6182 -115 
C 5459 38 4909 390 4602 909 
L 6035 909 
L 6035 1318 
L 4262 1318 
C 4294 1485 4326 1664 4346 1850 
L 5715 1850 
L 5715 3834 
L 2573 3834 
z
M 1120 5376 
L 1120 4141 
L 320 4141 
L 320 3693 
L 1120 3693 
L 1120 3686 
C 947 2816 576 1798 205 1261 
C 288 1146 403 934 461 794 
C 704 1171 934 1754 1120 2381 
L 1120 -506 
L 1581 -506 
L 1581 2790 
C 1754 2451 1952 2042 2035 1830 
L 2342 2176 
C 2234 2374 1747 3174 1581 3424 
L 1581 3693 
L 2240 3693 
L 2240 4141 
L 1581 4141 
L 1581 5376 
L 1120 5376 
z
" transform="scale(0.015625)"/>
      <path id="NotoSansCJKjp-Regular-578b" d="M 4064 5011 
L 4064 2867 
L 4506 2867 
L 4506 5011 
L 4064 5011 
z
M 5261 5338 
L 5261 2477 
C 5261 2394 5235 2368 5133 2362 
C 5037 2355 4717 2355 4352 2368 
C 4422 2240 4486 2054 4512 1926 
C 4966 1926 5280 1933 5472 2010 
C 5664 2080 5715 2202 5715 2470 
L 5715 5338 
L 5261 5338 
z
M 2483 4691 
L 2483 3808 
L 1690 3808 
L 1690 3846 
L 1690 4691 
L 2483 4691 
z
M 429 3808 
L 429 3379 
L 1210 3379 
C 1139 2950 928 2515 378 2176 
C 467 2112 627 1933 691 1843 
C 1344 2246 1587 2822 1658 3379 
L 2483 3379 
L 2483 2003 
L 2938 2003 
L 2938 3379 
L 3667 3379 
L 3667 3808 
L 2938 3808 
L 2938 4691 
L 3533 4691 
L 3533 5114 
L 640 5114 
L 640 4691 
L 1248 4691 
L 1248 3853 
L 1248 3808 
L 429 3808 
z
M 2989 2125 
L 2989 1414 
L 966 1414 
L 966 973 
L 2989 973 
L 2989 160 
L 301 160 
L 301 -288 
L 6093 -288 
L 6093 160 
L 3482 160 
L 3482 973 
L 5427 973 
L 5427 1414 
L 3482 1414 
L 3482 2125 
L 2989 2125 
z
" transform="scale(0.015625)"/>
      <path id="NotoSansCJKjp-Regular-8f93" d="M 4698 2861 
L 4698 544 
L 5075 544 
L 5075 2861 
L 4698 2861 
z
M 5510 3098 
L 5510 32 
C 5510 -38 5485 -58 5414 -64 
C 5331 -64 5075 -64 4781 -58 
C 4845 -173 4896 -346 4909 -454 
C 5286 -454 5542 -448 5696 -384 
C 5856 -314 5901 -198 5901 32 
L 5901 3098 
L 5510 3098 
z
M 454 2112 
C 506 2163 691 2202 896 2202 
L 1402 2202 
L 1402 1318 
C 973 1216 576 1126 269 1069 
L 378 614 
L 1402 877 
L 1402 -506 
L 1824 -506 
L 1824 986 
L 2355 1126 
L 2317 1530 
L 1824 1414 
L 1824 2202 
L 2336 2202 
L 2336 2643 
L 1824 2643 
L 1824 3616 
L 1402 3616 
L 1402 2643 
L 845 2643 
C 1011 3091 1171 3622 1299 4173 
L 2349 4173 
L 2349 4608 
L 1389 4608 
C 1440 4838 1478 5069 1510 5293 
L 1062 5370 
C 1037 5120 1005 4858 960 4608 
L 301 4608 
L 301 4173 
L 877 4173 
C 762 3642 640 3206 582 3040 
C 493 2752 416 2547 307 2515 
C 358 2406 429 2202 454 2112 
z
M 4218 5395 
C 3795 4723 3002 4090 2227 3731 
C 2342 3635 2470 3488 2541 3373 
C 2714 3462 2886 3565 3053 3674 
L 3053 3405 
L 5421 3405 
L 5421 3718 
C 5581 3622 5754 3526 5926 3437 
C 5984 3565 6118 3718 6234 3814 
C 5562 4102 4954 4467 4467 5011 
L 4608 5222 
L 4218 5395 
z
M 3238 3802 
C 3597 4064 3936 4371 4218 4698 
C 4544 4339 4896 4051 5286 3802 
L 3238 3802 
z
M 3930 2598 
L 3930 2093 
L 3053 2093 
L 3053 2598 
L 3930 2598 
z
M 2656 2982 
L 2656 -486 
L 3053 -486 
L 3053 832 
L 3930 832 
L 3930 -6 
C 3930 -64 3917 -77 3866 -83 
C 3802 -83 3635 -83 3437 -77 
C 3494 -192 3546 -365 3558 -474 
C 3834 -474 4032 -474 4166 -403 
C 4301 -333 4333 -211 4333 -6 
L 4333 2982 
L 2656 2982 
z
M 3053 1722 
L 3930 1722 
L 3930 1197 
L 3053 1197 
L 3053 1722 
z
" transform="scale(0.015625)"/>
      <path id="NotoSansCJKjp-Regular-5165" d="M 2842 3731 
C 2451 1920 1651 627 230 -115 
C 358 -205 582 -403 666 -499 
C 1946 250 2758 1427 3238 3085 
C 3533 1869 4218 461 5798 -493 
C 5882 -371 6074 -173 6189 -83 
C 3661 1414 3514 3846 3514 4986 
L 1459 4986 
L 1459 4499 
L 3040 4499 
C 3053 4256 3078 3981 3123 3680 
L 2842 3731 
z
" transform="scale(0.015625)"/>
     </defs>
     <use xlink:href="#NotoSansCJKjp-Regular-6a21"/>
     <use xlink:href="#NotoSansCJKjp-Regular-578b" transform="translate(99.999985 0)"/>
     <use xlink:href="#NotoSansCJKjp-Regular-8f93" transform="translate(199.999969 0)"/>
     <use xlink:href="#NotoSansCJKjp-Regular-5165" transform="translate(299.999954 0)"/>
    </g>
    <!--  -->
    <g transform="translate(18.36 85.161813) scale(0.11 -0.11)"/>
    <!-- 先验 + 8个读数 -->
    <g transform="translate(18.36 98.187875) scale(0.11 -0.11)">
     <defs>
      <path id="NotoSansCJKjp-Regular-5148" d="M 2957 5376 
L 2957 4378 
L 1824 4378 
C 1914 4634 1997 4890 2061 5126 
L 1574 5229 
C 1414 4557 1094 3706 653 3162 
C 774 3117 960 3008 1069 2938 
C 1286 3206 1478 3552 1638 3917 
L 2957 3917 
L 2957 2624 
L 390 2624 
L 390 2157 
L 2061 2157 
C 1952 1101 1664 282 301 -141 
C 416 -237 550 -422 608 -544 
C 2067 -38 2426 902 2560 2157 
L 3782 2157 
L 3782 275 
C 3782 -256 3923 -410 4499 -410 
C 4614 -410 5280 -410 5402 -410 
C 5920 -410 6054 -160 6106 813 
C 5971 851 5766 928 5664 1011 
C 5638 179 5600 51 5363 51 
C 5216 51 4666 51 4550 51 
C 4307 51 4262 83 4262 275 
L 4262 2157 
L 6016 2157 
L 6016 2624 
L 3443 2624 
L 3443 3917 
L 5555 3917 
L 5555 4378 
L 3443 4378 
L 3443 5376 
L 2957 5376 
z
" transform="scale(0.015625)"/>
      <path id="NotoSansCJKjp-Regular-9a8c" d="M 198 947 
L 301 544 
C 781 678 1370 838 1946 1005 
L 1901 1376 
C 1267 1210 646 1043 198 947 
z
M 3411 3392 
L 3411 2976 
L 5318 2976 
L 5318 3392 
L 3411 3392 
z
M 2989 2317 
C 3174 1830 3347 1190 3398 774 
L 3795 883 
C 3738 1299 3552 1926 3366 2406 
L 2989 2317 
z
M 4122 2477 
C 4230 1997 4346 1357 4378 941 
L 4774 1005 
C 4736 1421 4621 2048 4493 2534 
L 4122 2477 
z
M 685 4198 
C 640 3507 563 2554 480 1990 
L 2202 1990 
C 2118 672 2016 154 1882 13 
C 1830 -51 1760 -64 1658 -64 
C 1536 -64 1242 -58 928 -26 
C 998 -141 1050 -307 1056 -429 
C 1363 -448 1664 -454 1824 -442 
C 2016 -422 2131 -384 2240 -250 
C 2445 -45 2534 557 2637 2189 
C 2643 2246 2650 2387 2650 2387 
L 2221 2381 
L 2144 2381 
C 2221 3072 2317 4224 2381 5088 
L 410 5088 
L 410 4672 
L 1939 4672 
C 1888 3904 1805 2995 1728 2381 
L 941 2381 
C 998 2918 1056 3616 1094 4173 
L 685 4198 
z
M 4269 5421 
C 3872 4525 3168 3738 2400 3251 
C 2490 3155 2630 2963 2688 2867 
C 3290 3290 3872 3891 4314 4595 
C 4762 3974 5408 3309 5990 2886 
C 6042 3014 6150 3219 6234 3328 
C 5638 3712 4947 4390 4544 4998 
L 4685 5286 
L 4269 5421 
z
M 2784 224 
L 2784 -198 
L 6048 -198 
L 6048 224 
L 5069 224 
C 5382 813 5741 1658 6003 2336 
L 5568 2445 
C 5357 1773 4966 819 4653 224 
L 2784 224 
z
" transform="scale(0.015625)"/>
      <path id="NotoSansCJKjp-Regular-20" transform="scale(0.015625)"/>
      <path id="NotoSansCJKjp-Regular-2b" d="M 1542 742 
L 2010 742 
L 2010 2144 
L 3315 2144 
L 3315 2579 
L 2010 2579 
L 2010 3981 
L 1542 3981 
L 1542 2579 
L 243 2579 
L 243 2144 
L 1542 2144 
L 1542 742 
z
" transform="scale(0.015625)"/>
      <path id="NotoSansCJKjp-Regular-38" d="M 1792 -83 
C 2669 -83 3258 448 3258 1126 
C 3258 1773 2880 2125 2470 2362 
L 2470 2394 
C 2746 2611 3091 3034 3091 3526 
C 3091 4250 2605 4762 1805 4762 
C 1075 4762 518 4282 518 3571 
C 518 3078 813 2726 1152 2490 
L 1152 2464 
C 723 2234 294 1792 294 1165 
C 294 442 922 -83 1792 -83 
z
M 2112 2547 
C 1555 2765 1050 3014 1050 3571 
C 1050 4026 1363 4326 1798 4326 
C 2298 4326 2592 3962 2592 3494 
C 2592 3149 2426 2829 2112 2547 
z
M 1798 352 
C 1235 352 813 717 813 1216 
C 813 1664 1082 2035 1459 2278 
C 2125 2010 2701 1779 2701 1146 
C 2701 678 2342 352 1798 352 
z
" transform="scale(0.015625)"/>
      <path id="NotoSansCJKjp-Regular-4e2a" d="M 3174 4858 
C 3770 4026 4941 3014 5990 2406 
C 6080 2554 6189 2720 6317 2842 
C 5261 3373 4090 4365 3398 5357 
L 2893 5357 
C 2387 4493 1274 3411 115 2758 
C 224 2656 358 2483 422 2368 
C 1562 3040 2650 4051 3174 4858 
z
M 2925 3264 
L 2925 -512 
L 3430 -512 
L 3430 3264 
L 2925 3264 
z
" transform="scale(0.015625)"/>
      <path id="NotoSansCJKjp-Regular-8bfb" d="M 2835 2893 
C 3174 2714 3571 2445 3763 2246 
L 3994 2522 
C 3795 2714 3386 2970 3059 3136 
L 2835 2893 
z
M 2368 2310 
C 2714 2131 3117 1843 3315 1638 
L 3546 1920 
C 3354 2125 2938 2394 2598 2560 
L 2368 2310 
z
M 4371 672 
C 4896 326 5523 -192 5830 -531 
L 6138 -218 
C 5824 122 5178 614 4659 947 
L 4371 672 
z
M 672 4915 
C 1018 4621 1446 4205 1658 3936 
L 1984 4288 
C 1773 4550 1325 4947 979 5229 
L 672 4915 
z
M 2349 3795 
L 2349 3379 
L 5446 3379 
C 5357 3104 5254 2822 5165 2624 
L 5549 2522 
C 5696 2829 5862 3309 5997 3738 
L 5690 3814 
L 5613 3795 
L 4384 3795 
L 4384 4371 
L 5722 4371 
L 5722 4781 
L 4384 4781 
L 4384 5376 
L 3910 5376 
L 3910 4781 
L 2586 4781 
L 2586 4371 
L 3910 4371 
L 3910 3795 
L 2349 3795 
z
M 4090 3130 
L 4090 2374 
C 4090 2131 4077 1875 4006 1606 
L 2214 1606 
L 2214 1184 
L 3846 1184 
C 3597 691 3098 211 2112 -166 
C 2208 -256 2349 -429 2400 -544 
C 3584 -70 4122 550 4365 1184 
L 6054 1184 
L 6054 1606 
L 4486 1606 
C 4538 1869 4550 2118 4550 2362 
L 4550 3130 
L 4090 3130 
z
M 256 3366 
L 256 2906 
L 1203 2906 
L 1203 570 
C 1203 256 1011 45 902 -45 
C 979 -122 1107 -288 1158 -384 
L 1158 -378 
C 1248 -250 1414 -102 2413 723 
C 2355 813 2272 998 2227 1126 
L 1651 666 
L 1651 3366 
L 256 3366 
z
" transform="scale(0.015625)"/>
      <path id="NotoSansCJKjp-Regular-6570" d="M 2803 5254 
C 2688 4998 2483 4627 2317 4403 
L 2643 4243 
C 2816 4454 3027 4781 3219 5075 
L 2803 5254 
z
M 531 5075 
C 704 4806 870 4454 928 4230 
L 1312 4397 
C 1248 4627 1075 4973 890 5222 
L 531 5075 
z
M 4026 5382 
C 3846 4243 3507 3162 2970 2490 
C 3078 2413 3283 2246 3360 2163 
C 3533 2394 3693 2669 3827 2970 
C 3974 2310 4160 1709 4410 1184 
C 4090 698 3667 314 3110 19 
C 2912 166 2656 326 2374 480 
C 2598 774 2746 1126 2829 1562 
L 3398 1562 
L 3398 1958 
L 1677 1958 
L 1894 2413 
L 1779 2438 
L 2061 2438 
L 2061 3398 
C 2374 3168 2771 2854 2938 2701 
L 3206 3046 
C 3034 3174 2336 3616 2061 3776 
L 2061 3802 
L 3373 3802 
L 3373 4198 
L 2061 4198 
L 2061 5382 
L 1613 5382 
L 1613 4198 
L 288 4198 
L 288 3802 
L 1485 3802 
C 1171 3379 678 2982 218 2784 
C 314 2694 422 2528 480 2419 
C 870 2637 1293 2989 1613 3373 
L 1613 2477 
L 1440 2515 
L 1178 1958 
L 250 1958 
L 250 1562 
L 979 1562 
C 806 1222 627 896 486 653 
L 909 506 
L 1005 678 
C 1222 589 1434 493 1638 384 
C 1306 147 858 -13 269 -109 
C 352 -211 448 -384 480 -512 
C 1171 -365 1683 -154 2061 160 
C 2355 -13 2611 -186 2810 -352 
L 2963 -192 
C 3046 -301 3136 -448 3174 -531 
C 3802 -205 4288 205 4666 710 
C 4979 192 5370 -224 5862 -512 
C 5939 -378 6093 -192 6208 -96 
C 5690 173 5280 614 4960 1165 
C 5350 1856 5594 2707 5754 3750 
L 6144 3750 
L 6144 4198 
L 4262 4198 
C 4358 4557 4442 4928 4506 5312 
L 4026 5382 
z
M 1478 1562 
L 2368 1562 
C 2285 1216 2157 928 1965 698 
C 1715 819 1459 934 1197 1030 
L 1478 1562 
z
M 4134 3750 
L 5254 3750 
C 5139 2950 4966 2266 4698 1696 
C 4435 2298 4250 3002 4134 3750 
z
" transform="scale(0.015625)"/>
     </defs>
     <use xlink:href="#NotoSansCJKjp-Regular-5148"/>
     <use xlink:href="#NotoSansCJKjp-Regular-9a8c" transform="translate(99.999985 0)"/>
     <use xlink:href="#NotoSansCJKjp-Regular-20" transform="translate(199.999969 0)"/>
     <use xlink:href="#NotoSansCJKjp-Regular-2b" transform="translate(222.399963 0)"/>
     <use xlink:href="#NotoSansCJKjp-Regular-20" transform="translate(277.899948 0)"/>
     <use xlink:href="#NotoSansCJKjp-Regular-38" transform="translate(300.299942 0)"/>
     <use xlink:href="#NotoSansCJKjp-Regular-4e2a" transform="translate(355.799927 0)"/>
     <use xlink:href="#NotoSansCJKjp-Regular-8bfb" transform="translate(455.799911 0)"/>
     <use xlink:href="#NotoSansCJKjp-Regular-6570" transform="translate(555.799896 0)"/>
    </g>
   </g>
   <g id="patch_3">
    <path d="M 134.74782 82.044 
Q 142.514456 82.044 148.045024 82.044 
" style="fill: none; stroke: #d37b17; stroke-width: 2; stroke-linecap: round"/>
    <path d="M 143.645024 79.844 
L 148.045024 82.044 
L 143.645024 84.244 
" style="fill: none; stroke: #d37b17; stroke-width: 2; stroke-linecap: round"/>
   </g>
   <g id="text_2">
    <g id="patch_4">
     <path d="M 157.86 108.407563 
L 255.101719 108.407563 
Q 262.801719 108.407563 262.801719 100.707563 
L 262.801719 63.380438 
Q 262.801719 55.680438 255.101719 55.680438 
L 157.86 55.680438 
Q 150.16 55.680438 150.16 63.380438 
L 150.16 100.707563 
Q 150.16 108.407563 157.86 108.407563 
z
" style="fill: #e8f2f7; stroke: #156b99; stroke-linejoin: miter"/>
    </g>
    <!-- 目标后验 -->
    <g transform="translate(157.86 72.13575) scale(0.11 -0.11)">
     <defs>
      <path id="NotoSansCJKjp-Regular-76ee" d="M 1491 3008 
L 4858 3008 
L 4858 1952 
L 1491 1952 
L 1491 3008 
z
M 1491 3469 
L 1491 4506 
L 4858 4506 
L 4858 3469 
L 1491 3469 
z
M 1491 1491 
L 4858 1491 
L 4858 429 
L 1491 429 
L 1491 1491 
z
M 1011 4979 
L 1011 -474 
L 1491 -474 
L 1491 -38 
L 4858 -38 
L 4858 -474 
L 5357 -474 
L 5357 4979 
L 1011 4979 
z
" transform="scale(0.015625)"/>
      <path id="NotoSansCJKjp-Regular-6807" d="M 2982 4890 
L 2982 4435 
L 5773 4435 
L 5773 4890 
L 2982 4890 
z
M 4986 2080 
C 5286 1440 5587 608 5683 102 
L 6125 262 
C 6016 768 5709 1581 5395 2208 
L 4986 2080 
z
M 3142 2189 
C 2976 1510 2688 826 2330 365 
C 2438 314 2630 179 2720 115 
C 3066 602 3386 1350 3584 2093 
L 3142 2189 
z
M 2701 3360 
L 2701 2906 
L 4070 2906 
L 4070 115 
C 4070 32 4045 6 3949 0 
C 3866 0 3565 -6 3232 6 
C 3296 -141 3366 -346 3386 -486 
C 3834 -486 4128 -474 4314 -397 
C 4499 -314 4557 -166 4557 109 
L 4557 2906 
L 6118 2906 
L 6118 3360 
L 2701 3360 
z
M 1293 5376 
L 1293 4019 
L 314 4019 
L 314 3571 
L 1190 3571 
C 979 2778 563 1856 154 1376 
C 243 1254 371 1056 422 928 
C 742 1338 1056 2010 1293 2701 
L 1293 -506 
L 1773 -506 
L 1773 2842 
C 1990 2528 2246 2131 2355 1926 
L 2637 2304 
C 2509 2483 1958 3187 1773 3398 
L 1773 3571 
L 2611 3571 
L 2611 4019 
L 1773 4019 
L 1773 5376 
L 1293 5376 
z
" transform="scale(0.015625)"/>
      <path id="NotoSansCJKjp-Regular-540e" d="M 5222 5325 
C 4352 5088 2829 4902 1446 4787 
L 954 4883 
L 954 3085 
C 954 2099 883 774 205 -198 
C 326 -256 512 -416 582 -518 
C 1338 538 1434 2048 1434 3078 
L 1434 3142 
L 6163 3142 
L 6163 3603 
L 1434 3603 
L 1434 4358 
C 2886 4461 4518 4653 5626 4947 
L 5222 5325 
z
M 1997 2227 
L 1997 -518 
L 2458 -518 
L 2458 -186 
L 5114 -186 
L 5114 -506 
L 5600 -506 
L 5600 2227 
L 1997 2227 
z
M 2458 262 
L 2458 1779 
L 5114 1779 
L 5114 262 
L 2458 262 
z
" transform="scale(0.015625)"/>
     </defs>
     <use xlink:href="#NotoSansCJKjp-Regular-76ee"/>
     <use xlink:href="#NotoSansCJKjp-Regular-6807" transform="translate(99.999985 0)"/>
     <use xlink:href="#NotoSansCJKjp-Regular-540e" transform="translate(199.999969 0)"/>
     <use xlink:href="#NotoSansCJKjp-Regular-9a8c" transform="translate(299.999954 0)"/>
    </g>
    <!--  -->
    <g transform="translate(157.86 85.161813) scale(0.11 -0.11)"/>
    <!-- 密度比例 / 解析对照 -->
    <g transform="translate(157.86 98.187875) scale(0.11 -0.11)">
     <defs>
      <path id="NotoSansCJKjp-Regular-5bc6" d="M 1165 3539 
C 1018 3098 736 2650 301 2400 
L 672 2138 
C 1139 2426 1402 2918 1568 3392 
L 1165 3539 
z
M 2253 4019 
C 2650 3834 3123 3539 3354 3315 
L 3610 3629 
C 3373 3840 2886 4128 2496 4301 
L 2253 4019 
z
M 4659 3270 
C 5094 2906 5574 2381 5779 2022 
L 6150 2285 
C 5933 2650 5440 3162 5005 3507 
L 4659 3270 
z
M 4339 4038 
C 3878 3411 3187 2893 2381 2496 
L 2381 3642 
L 1946 3642 
L 1946 2387 
L 1946 2291 
C 1408 2061 832 1875 243 1728 
C 333 1632 467 1434 525 1331 
C 1069 1485 1613 1677 2125 1907 
C 2253 1824 2458 1792 2778 1792 
C 2918 1792 3930 1792 4077 1792 
C 4608 1792 4742 1965 4800 2669 
C 4678 2694 4499 2758 4403 2829 
C 4371 2266 4326 2189 4038 2189 
C 3814 2189 2970 2189 2803 2189 
L 2707 2189 
C 3526 2624 4243 3174 4755 3853 
L 4339 4038 
z
M 4960 1325 
L 4960 211 
L 3430 211 
L 3430 1696 
L 2944 1696 
L 2944 211 
L 1504 211 
L 1504 1325 
L 1030 1325 
L 1030 -512 
L 1504 -512 
L 1504 -237 
L 4960 -237 
L 4960 -499 
L 5440 -499 
L 5440 1325 
L 4960 1325 
z
M 493 4826 
L 493 3571 
L 966 3571 
L 966 4390 
L 5434 4390 
L 5434 3571 
L 5920 3571 
L 5920 4826 
L 3430 4826 
L 3430 5376 
L 2938 5376 
L 2938 4826 
L 493 4826 
z
" transform="scale(0.015625)"/>
      <path id="NotoSansCJKjp-Regular-5ea6" d="M 2470 4141 
L 2470 3584 
L 1440 3584 
L 1440 3187 
L 2470 3187 
L 2470 2125 
L 4960 2125 
L 4960 3187 
L 5997 3187 
L 5997 3584 
L 4960 3584 
L 4960 4141 
L 4486 4141 
L 4486 3584 
L 2931 3584 
L 2931 4141 
L 2470 4141 
z
M 4486 3187 
L 4486 2509 
L 2931 2509 
L 2931 3187 
L 4486 3187 
z
M 4851 1318 
C 4582 986 4211 717 3770 506 
C 3334 723 2970 992 2720 1318 
L 4851 1318 
z
M 1530 1715 
L 1530 1318 
L 2502 1318 
L 2259 1222 
C 2515 858 2861 550 3270 301 
C 2662 90 1978 -38 1280 -109 
C 1357 -211 1453 -397 1485 -512 
C 2291 -416 3072 -243 3757 45 
C 4365 -237 5088 -422 5869 -525 
C 5933 -403 6048 -211 6150 -109 
C 5466 -38 4819 96 4269 294 
C 4813 608 5261 1024 5549 1574 
L 5248 1734 
L 5165 1715 
L 1530 1715 
z
M 774 4742 
L 774 2893 
C 774 1965 730 659 198 -256 
C 314 -307 512 -435 595 -518 
C 1152 448 1235 1901 1235 2893 
L 1235 4307 
L 6035 4307 
L 6035 4742 
L 3635 4742 
L 3635 5376 
L 3142 5376 
L 3142 4742 
L 774 4742 
z
" transform="scale(0.015625)"/>
      <path id="NotoSansCJKjp-Regular-6bd4" d="M 250 128 
L 397 -371 
C 1197 -179 2278 77 3290 326 
L 3245 787 
C 2694 659 2125 525 1600 410 
L 1600 2925 
L 3046 2925 
L 3046 3398 
L 1600 3398 
L 1600 5344 
L 1107 5344 
L 1107 301 
L 250 128 
z
M 3520 5344 
L 3520 512 
C 3520 -186 3693 -371 4320 -371 
C 4448 -371 5261 -371 5395 -371 
C 6003 -371 6138 -13 6202 1037 
C 6061 1069 5869 1152 5747 1248 
C 5709 320 5670 83 5370 83 
C 5190 83 4506 83 4371 83 
C 4064 83 4013 147 4013 499 
L 4013 2586 
C 4691 2874 5414 3219 5952 3571 
L 5594 3974 
C 5216 3674 4608 3328 4013 3046 
L 4013 5344 
L 3520 5344 
z
" transform="scale(0.015625)"/>
      <path id="NotoSansCJKjp-Regular-4f8b" d="M 4320 4653 
L 4320 954 
L 4755 954 
L 4755 4653 
L 4320 4653 
z
M 5491 5274 
L 5491 90 
C 5491 -19 5453 -45 5350 -51 
C 5242 -58 4902 -58 4512 -45 
C 4582 -179 4646 -390 4672 -518 
C 5178 -518 5491 -506 5683 -422 
C 5869 -346 5939 -211 5939 96 
L 5939 5274 
L 5491 5274 
z
M 1958 5050 
L 1958 4621 
L 2547 4621 
C 2413 3680 2131 2573 1562 1894 
C 1651 1818 1792 1658 1856 1568 
C 2016 1754 2157 1971 2285 2208 
C 2579 1997 2906 1722 3110 1510 
C 2790 762 2349 205 1818 -160 
C 1920 -237 2067 -416 2138 -525 
C 3117 179 3827 1549 4077 3635 
L 3795 3731 
L 3718 3712 
L 2822 3712 
C 2899 4019 2963 4326 3014 4621 
L 4288 4621 
L 4288 5050 
L 1958 5050 
z
M 2707 3283 
L 3584 3283 
C 3514 2797 3411 2355 3277 1958 
C 3072 2157 2752 2406 2464 2592 
C 2554 2810 2637 3046 2707 3283 
z
M 1491 5350 
C 1184 4365 672 3392 115 2752 
C 198 2630 320 2374 371 2266 
C 582 2509 781 2797 973 3110 
L 973 -512 
L 1421 -512 
L 1421 3942 
C 1619 4358 1792 4794 1933 5222 
L 1491 5350 
z
" transform="scale(0.015625)"/>
      <path id="NotoSansCJKjp-Regular-2f" d="M 70 -1146 
L 499 -1146 
L 2413 5082 
L 1990 5082 
L 70 -1146 
z
" transform="scale(0.015625)"/>
      <path id="NotoSansCJKjp-Regular-89e3" d="M 1677 3379 
L 1677 2662 
L 1101 2662 
L 1101 3379 
L 1677 3379 
z
M 2029 3379 
L 2605 3379 
L 2605 2662 
L 2029 2662 
L 2029 3379 
z
M 1037 3750 
C 1152 3962 1261 4186 1357 4422 
L 2067 4422 
C 1984 4192 1875 3942 1779 3750 
L 1037 3750 
z
M 1210 5382 
C 1011 4595 659 3834 205 3341 
C 307 3277 493 3130 563 3053 
L 698 3219 
L 698 2048 
C 698 1325 653 371 218 -307 
C 314 -346 493 -454 563 -525 
C 864 -58 1005 576 1062 1171 
L 2605 1171 
L 2605 19 
C 2605 -70 2573 -96 2483 -96 
C 2400 -102 2106 -102 1779 -96 
C 1837 -205 1907 -390 1926 -506 
C 2374 -506 2630 -499 2797 -429 
C 2957 -352 3014 -218 3014 13 
L 3014 3219 
C 3110 3142 3219 2995 3270 2906 
C 4070 3258 4384 3885 4518 4646 
L 5536 4646 
C 5498 3898 5446 3597 5376 3514 
C 5331 3462 5280 3456 5184 3456 
C 5101 3456 4864 3462 4608 3482 
C 4672 3373 4710 3206 4723 3085 
C 4986 3066 5254 3066 5389 3078 
C 5549 3091 5651 3136 5734 3238 
C 5875 3392 5933 3802 5978 4870 
C 5984 4934 5990 5050 5990 5050 
L 3200 5050 
L 3200 4646 
L 4070 4646 
C 3955 4045 3699 3526 3014 3238 
L 3014 3750 
L 2202 3750 
C 2355 4026 2509 4352 2611 4646 
L 2330 4826 
L 2259 4806 
L 1504 4806 
C 1555 4966 1606 5126 1651 5286 
L 1210 5382 
z
M 1677 2298 
L 1677 1555 
L 1088 1555 
L 1101 2048 
L 1101 2298 
L 1677 2298 
z
M 2029 2298 
L 2605 2298 
L 2605 1555 
L 2029 1555 
L 2029 2298 
z
M 3642 2944 
C 3533 2406 3334 1869 3053 1504 
C 3162 1459 3347 1363 3430 1306 
C 3552 1478 3661 1690 3763 1926 
L 4480 1926 
L 4480 1152 
L 3123 1152 
L 3123 723 
L 4480 723 
L 4480 -486 
L 4934 -486 
L 4934 723 
L 6163 723 
L 6163 1152 
L 4934 1152 
L 4934 1926 
L 6048 1926 
L 6048 2349 
L 4934 2349 
L 4934 3002 
L 4480 3002 
L 4480 2349 
L 3917 2349 
C 3968 2515 4019 2694 4058 2867 
L 3642 2944 
z
" transform="scale(0.015625)"/>
      <path id="NotoSansCJKjp-Regular-6790" d="M 5459 5306 
C 4998 5094 4230 4883 3501 4730 
L 3104 4851 
L 3104 3053 
C 3104 2080 3027 787 2310 -173 
C 2426 -230 2605 -384 2675 -493 
C 3386 454 3546 1734 3565 2726 
L 4730 2726 
L 4730 -512 
L 5203 -512 
L 5203 2726 
L 6157 2726 
L 6157 3181 
L 3571 3181 
L 3571 4320 
C 4371 4461 5254 4678 5869 4934 
L 5459 5306 
z
M 1325 5376 
L 1325 4006 
L 333 4006 
L 333 3546 
L 1261 3546 
C 1050 2662 614 1658 179 1120 
C 256 1005 378 813 429 685 
C 762 1120 1082 1837 1325 2566 
L 1325 -506 
L 1792 -506 
L 1792 2400 
C 2016 2086 2272 1696 2381 1491 
L 2682 1875 
C 2554 2054 1997 2733 1792 2963 
L 1792 3546 
L 2662 3546 
L 2662 4006 
L 1792 4006 
L 1792 5376 
L 1325 5376 
z
" transform="scale(0.015625)"/>
      <path id="NotoSansCJKjp-Regular-5bf9" d="M 3213 2522 
C 3514 2067 3802 1459 3904 1075 
L 4326 1286 
C 4224 1670 3917 2259 3603 2701 
L 3213 2522 
z
M 582 2899 
C 973 2547 1389 2131 1760 1709 
C 1376 890 870 269 288 -109 
C 403 -205 550 -384 627 -499 
C 1216 -77 1715 512 2106 1299 
C 2394 941 2630 602 2784 314 
L 3168 666 
C 2982 998 2682 1395 2330 1798 
C 2624 2534 2835 3411 2944 4448 
L 2630 4538 
L 2547 4518 
L 448 4518 
L 448 4064 
L 2419 4064 
C 2323 3373 2170 2752 1965 2202 
C 1626 2554 1267 2899 922 3200 
L 582 2899 
z
M 4896 5376 
L 4896 3834 
L 3085 3834 
L 3085 3373 
L 4896 3373 
L 4896 141 
C 4896 26 4851 -6 4742 -13 
C 4634 -13 4275 -19 3872 0 
C 3936 -147 4006 -371 4032 -506 
C 4576 -506 4902 -493 5094 -410 
C 5293 -326 5370 -179 5370 141 
L 5370 3373 
L 6138 3373 
L 6138 3834 
L 5370 3834 
L 5370 5376 
L 4896 5376 
z
" transform="scale(0.015625)"/>
      <path id="NotoSansCJKjp-Regular-7167" d="M 3379 2605 
L 5254 2605 
L 5254 1632 
L 3379 1632 
L 3379 2605 
z
M 2931 3008 
L 2931 1229 
L 5728 1229 
L 5728 3008 
L 2931 3008 
z
M 2176 800 
C 2253 378 2304 -160 2310 -486 
L 2778 -416 
C 2771 -96 2701 435 2618 845 
L 2176 800 
z
M 3546 819 
C 3712 403 3872 -147 3936 -474 
L 4410 -371 
C 4346 -32 4166 499 3994 902 
L 3546 819 
z
M 4851 851 
C 5158 429 5510 -160 5664 -525 
L 6118 -320 
C 5958 45 5594 614 5286 1030 
L 4851 851 
z
M 1114 986 
C 902 512 563 -19 275 -339 
L 736 -544 
C 1030 -179 1350 378 1574 851 
L 1114 986 
z
M 1050 4672 
L 2010 4672 
L 2010 3546 
L 1050 3546 
L 1050 4672 
z
M 1050 1869 
L 1050 3123 
L 2010 3123 
L 2010 1869 
L 1050 1869 
z
M 595 5101 
L 595 1107 
L 1050 1107 
L 1050 1434 
L 2458 1434 
L 2458 5101 
L 595 5101 
z
M 2739 5114 
L 2739 4685 
L 3808 4685 
C 3680 4090 3379 3680 2534 3450 
C 2630 3373 2752 3200 2803 3091 
C 3776 3392 4141 3910 4282 4685 
L 5427 4685 
C 5382 4077 5338 3827 5254 3744 
C 5210 3699 5152 3693 5062 3693 
C 4960 3693 4698 3693 4416 3718 
C 4486 3610 4531 3443 4538 3322 
C 4832 3302 5120 3309 5267 3315 
C 5434 3328 5542 3366 5645 3469 
C 5779 3616 5843 3994 5901 4928 
C 5907 4992 5914 5114 5914 5114 
L 2739 5114 
z
" transform="scale(0.015625)"/>
     </defs>
     <use xlink:href="#NotoSansCJKjp-Regular-5bc6"/>
     <use xlink:href="#NotoSansCJKjp-Regular-5ea6" transform="translate(99.999985 0)"/>
     <use xlink:href="#NotoSansCJKjp-Regular-6bd4" transform="translate(199.999969 0)"/>
     <use xlink:href="#NotoSansCJKjp-Regular-4f8b" transform="translate(299.999954 0)"/>
     <use xlink:href="#NotoSansCJKjp-Regular-20" transform="translate(399.999939 0)"/>
     <use xlink:href="#NotoSansCJKjp-Regular-2f" transform="translate(422.399933 0)"/>
     <use xlink:href="#NotoSansCJKjp-Regular-20" transform="translate(461.59993 0)"/>
     <use xlink:href="#NotoSansCJKjp-Regular-89e3" transform="translate(483.999924 0)"/>
     <use xlink:href="#NotoSansCJKjp-Regular-6790" transform="translate(583.999908 0)"/>
     <use xlink:href="#NotoSansCJKjp-Regular-5bf9" transform="translate(683.999893 0)"/>
     <use xlink:href="#NotoSansCJKjp-Regular-7167" transform="translate(783.999878 0)"/>
    </g>
   </g>
   <g id="patch_5">
    <path d="M 274.24782 82.044 
Q 282.014456 82.044 287.545024 82.044 
" style="fill: none; stroke: #d37b17; stroke-width: 2; stroke-linecap: round"/>
    <path d="M 283.145024 79.844 
L 287.545024 82.044 
L 283.145024 84.244 
" style="fill: none; stroke: #d37b17; stroke-width: 2; stroke-linecap: round"/>
   </g>
   <g id="text_3">
    <g id="patch_6">
     <path d="M 297.36 108.407563 
L 399.462344 108.407563 
Q 407.162344 108.407563 407.162344 100.707563 
L 407.162344 63.380438 
Q 407.162344 55.680438 399.462344 55.680438 
L 297.36 55.680438 
Q 289.66 55.680438 289.66 63.380438 
L 289.66 100.707563 
Q 289.66 108.407563 297.36 108.407563 
z
" style="fill: #e8f2f7; stroke: #156b99; stroke-linejoin: miter"/>
    </g>
    <!-- 随机计算 -->
    <g transform="translate(297.36 72.13575) scale(0.11 -0.11)">
     <defs>
      <path id="NotoSansCJKjp-Regular-968f" d="M 2176 4902 
C 2445 4544 2720 4051 2816 3738 
L 3206 3936 
C 3110 4256 2829 4723 2547 5082 
L 2176 4902 
z
M 4333 5382 
C 4282 5133 4218 4890 4134 4659 
L 3200 4659 
L 3200 4243 
L 3974 4243 
C 3744 3725 3437 3290 3046 2963 
C 3142 2886 3309 2720 3373 2650 
C 3546 2803 3699 2976 3846 3168 
L 3846 435 
L 4262 435 
L 4262 1504 
L 5434 1504 
L 5434 877 
C 5434 813 5414 794 5350 794 
C 5293 794 5107 794 4896 800 
C 4941 691 4998 544 5018 429 
C 5338 429 5549 435 5690 499 
C 5830 563 5869 672 5869 877 
L 5869 3686 
L 4179 3686 
C 4275 3859 4365 4045 4442 4243 
L 6131 4243 
L 6131 4659 
L 4595 4659 
C 4659 4864 4717 5082 4768 5306 
L 4333 5382 
z
M 4262 2426 
L 5434 2426 
L 5434 1869 
L 4262 1869 
L 4262 2426 
z
M 4262 2784 
L 4262 3309 
L 5434 3309 
L 5434 2784 
L 4262 2784 
z
M 3072 2816 
L 2067 2816 
L 2067 2413 
L 2656 2413 
L 2656 755 
C 2387 461 2074 166 1824 -58 
L 2067 -474 
C 2355 -173 2624 115 2874 410 
C 3162 -70 3590 -371 4243 -403 
C 4723 -422 5587 -416 6074 -390 
C 6086 -262 6150 -64 6208 45 
C 5677 6 4736 -6 4262 19 
C 3686 45 3283 333 3072 787 
L 3072 2816 
z
M 506 5101 
L 506 -512 
L 934 -512 
L 934 4666 
L 1626 4666 
C 1510 4224 1357 3629 1197 3162 
C 1587 2637 1677 2189 1677 1837 
C 1677 1632 1645 1446 1562 1382 
C 1517 1344 1459 1325 1395 1318 
C 1312 1312 1210 1318 1094 1331 
C 1165 1203 1203 1030 1210 909 
C 1331 909 1459 909 1562 922 
C 1677 934 1779 973 1862 1030 
C 2016 1158 2086 1440 2086 1779 
C 2086 2189 2003 2656 1613 3206 
C 1792 3731 1990 4403 2150 4941 
L 1843 5126 
L 1779 5101 
L 506 5101 
z
" transform="scale(0.015625)"/>
      <path id="NotoSansCJKjp-Regular-673a" d="M 3187 5011 
L 3187 2957 
C 3187 1965 3098 691 2234 -205 
C 2342 -262 2528 -422 2598 -512 
C 3520 435 3654 1888 3654 2957 
L 3654 4557 
L 4858 4557 
L 4858 435 
C 4858 -115 4896 -230 5005 -326 
C 5101 -410 5242 -448 5370 -448 
C 5453 -448 5600 -448 5696 -448 
C 5830 -448 5946 -422 6035 -358 
C 6131 -294 6182 -186 6214 0 
C 6240 160 6266 634 6266 998 
C 6144 1037 5997 1114 5901 1203 
C 5894 774 5888 435 5869 288 
C 5862 141 5843 83 5805 45 
C 5779 13 5728 0 5677 0 
C 5613 0 5536 0 5491 0 
C 5440 0 5408 13 5376 38 
C 5344 64 5331 186 5331 397 
L 5331 5011 
L 3187 5011 
z
M 1395 5376 
L 1395 4006 
L 333 4006 
L 333 3546 
L 1331 3546 
C 1101 2656 634 1658 179 1120 
C 256 1005 378 813 429 685 
C 787 1126 1133 1850 1395 2598 
L 1395 -506 
L 1862 -506 
L 1862 2432 
C 2112 2112 2413 1715 2541 1498 
L 2842 1894 
C 2694 2061 2086 2746 1862 2970 
L 1862 3546 
L 2810 3546 
L 2810 4006 
L 1862 4006 
L 1862 5376 
L 1395 5376 
z
" transform="scale(0.015625)"/>
      <path id="NotoSansCJKjp-Regular-8ba1" d="M 877 4960 
C 1235 4659 1683 4224 1888 3949 
L 2214 4307 
C 1997 4570 1542 4979 1190 5267 
L 877 4960 
z
M 294 3366 
L 294 2893 
L 1312 2893 
L 1312 595 
C 1312 320 1114 128 992 51 
C 1082 -45 1210 -262 1254 -390 
C 1357 -256 1536 -115 2746 742 
C 2694 832 2618 1037 2586 1165 
L 1798 627 
L 1798 3366 
L 294 3366 
z
M 4006 5357 
L 4006 3251 
L 2381 3251 
L 2381 2758 
L 4006 2758 
L 4006 -512 
L 4512 -512 
L 4512 2758 
L 6138 2758 
L 6138 3251 
L 4512 3251 
L 4512 5357 
L 4006 5357 
z
" transform="scale(0.015625)"/>
      <path id="NotoSansCJKjp-Regular-7b97" d="M 1613 2925 
L 4890 2925 
L 4890 2547 
L 1613 2547 
L 1613 2925 
z
M 1613 2240 
L 4890 2240 
L 4890 1856 
L 1613 1856 
L 1613 2240 
z
M 1613 3597 
L 4890 3597 
L 4890 3232 
L 1613 3232 
L 1613 3597 
z
M 3686 5408 
C 3507 4915 3181 4448 2790 4141 
C 2899 4096 3085 3994 3181 3923 
L 1894 3923 
L 2259 4058 
C 2214 4179 2118 4352 2016 4506 
L 3117 4506 
L 3117 4902 
L 1427 4902 
C 1498 5030 1562 5158 1619 5286 
L 1171 5408 
C 966 4909 614 4410 224 4083 
C 333 4019 525 3891 614 3814 
C 813 4000 1011 4243 1184 4506 
L 1517 4506 
C 1645 4314 1773 4077 1837 3923 
L 1133 3923 
L 1133 1530 
L 1990 1530 
L 1990 1114 
L 1984 973 
L 358 973 
L 358 576 
L 1830 576 
C 1651 307 1267 38 461 -160 
C 563 -250 698 -416 762 -518 
C 1786 -224 2214 179 2381 576 
L 4109 576 
L 4109 -499 
L 4602 -499 
L 4602 576 
L 6067 576 
L 6067 973 
L 4602 973 
L 4602 1530 
L 5389 1530 
L 5389 3923 
L 4749 3923 
L 5094 4083 
C 5030 4205 4915 4358 4787 4506 
L 6016 4506 
L 6016 4902 
L 3968 4902 
C 4038 5030 4096 5165 4147 5299 
L 3686 5408 
z
M 4109 973 
L 2470 973 
L 2477 1101 
L 2477 1530 
L 4109 1530 
L 4109 973 
z
M 3232 3923 
C 3405 4083 3578 4282 3731 4506 
L 4243 4506 
C 4416 4320 4595 4090 4678 3923 
L 3232 3923 
z
" transform="scale(0.015625)"/>
     </defs>
     <use xlink:href="#NotoSansCJKjp-Regular-968f"/>
     <use xlink:href="#NotoSansCJKjp-Regular-673a" transform="translate(99.999985 0)"/>
     <use xlink:href="#NotoSansCJKjp-Regular-8ba1" transform="translate(199.999969 0)"/>
     <use xlink:href="#NotoSansCJKjp-Regular-7b97" transform="translate(299.999954 0)"/>
    </g>
    <!--  -->
    <g transform="translate(297.36 85.161813) scale(0.11 -0.11)"/>
    <!-- 独立样本 / Markov链 -->
    <g transform="translate(297.36 98.187875) scale(0.11 -0.11)">
     <defs>
      <path id="NotoSansCJKjp-Regular-72ec" d="M 2490 4109 
L 2490 1741 
L 3898 1741 
L 3898 352 
L 2157 179 
L 2246 -320 
C 3104 -224 4333 -90 5504 58 
C 5581 -147 5645 -333 5690 -486 
L 6170 -314 
C 6016 147 5670 915 5376 1498 
L 4934 1363 
C 5062 1101 5197 800 5325 506 
L 4378 403 
L 4378 1741 
L 5792 1741 
L 5792 4109 
L 4378 4109 
L 4378 5363 
L 3898 5363 
L 3898 4109 
L 2490 4109 
z
M 2963 3686 
L 3898 3686 
L 3898 2170 
L 2963 2170 
L 2963 3686 
z
M 4378 3686 
L 5299 3686 
L 5299 2170 
L 4378 2170 
L 4378 3686 
z
M 1901 5267 
C 1766 5018 1594 4755 1389 4506 
C 1210 4768 979 5024 685 5274 
L 346 5018 
C 666 4736 909 4448 1082 4147 
C 819 3866 538 3603 243 3392 
C 352 3315 499 3181 576 3085 
C 819 3277 1062 3494 1293 3725 
C 1408 3437 1478 3136 1517 2829 
C 1216 2272 691 1670 218 1370 
C 333 1280 467 1114 544 1005 
C 890 1274 1261 1683 1568 2118 
L 1568 1914 
C 1568 1069 1504 294 1344 77 
C 1293 6 1229 -19 1133 -32 
C 992 -51 742 -51 435 -32 
C 518 -166 570 -339 576 -493 
C 845 -506 1107 -499 1325 -461 
C 1485 -435 1606 -365 1690 -250 
C 1952 102 2022 966 2022 1901 
C 2022 2662 1965 3398 1626 4090 
C 1894 4397 2131 4730 2323 5056 
L 1901 5267 
z
" transform="scale(0.015625)"/>
      <path id="NotoSansCJKjp-Regular-7acb" d="M 1408 3194 
C 1728 2362 1971 1267 2003 563 
L 2496 685 
C 2445 1395 2202 2464 1862 3309 
L 1408 3194 
z
M 2938 5376 
L 2938 4115 
L 550 4115 
L 550 3642 
L 5894 3642 
L 5894 4115 
L 3437 4115 
L 3437 5376 
L 2938 5376 
z
M 4461 3347 
C 4275 2400 3910 1069 3590 243 
L 333 243 
L 333 -230 
L 6074 -230 
L 6074 243 
L 4096 243 
C 4403 1062 4762 2272 5011 3245 
L 4461 3347 
z
" transform="scale(0.015625)"/>
      <path id="NotoSansCJKjp-Regular-6837" d="M 2822 5190 
C 3040 4864 3270 4429 3360 4154 
L 3808 4339 
C 3712 4614 3469 5030 3245 5350 
L 2822 5190 
z
M 5261 5395 
C 5120 5018 4877 4506 4659 4147 
L 2554 4147 
L 2554 3706 
L 3994 3706 
L 3994 2822 
L 2752 2822 
L 2752 2381 
L 3994 2381 
L 3994 1478 
L 2310 1478 
L 2310 1024 
L 3994 1024 
L 3994 -506 
L 4474 -506 
L 4474 1024 
L 6061 1024 
L 6061 1478 
L 4474 1478 
L 4474 2381 
L 5728 2381 
L 5728 2822 
L 4474 2822 
L 4474 3706 
L 5939 3706 
L 5939 4147 
L 5165 4147 
C 5357 4467 5568 4870 5747 5229 
L 5261 5395 
z
M 1171 5376 
L 1171 4141 
L 352 4141 
L 352 3693 
L 1171 3693 
C 986 2822 595 1798 198 1261 
C 282 1146 403 934 454 794 
C 717 1184 973 1798 1171 2445 
L 1171 -506 
L 1632 -506 
L 1632 2816 
C 1805 2496 2003 2125 2086 1914 
L 2387 2272 
C 2278 2451 1805 3187 1632 3418 
L 1632 3693 
L 2310 3693 
L 2310 4141 
L 1632 4141 
L 1632 5376 
L 1171 5376 
z
" transform="scale(0.015625)"/>
      <path id="NotoSansCJKjp-Regular-672c" d="M 2944 5370 
L 2944 4026 
L 416 4026 
L 416 3539 
L 2643 3539 
C 2099 2438 1171 1402 198 896 
C 307 800 461 621 544 499 
C 1478 1050 2355 2016 2944 3130 
L 2944 1171 
L 1690 1171 
L 1690 685 
L 2944 685 
L 2944 -512 
L 3450 -512 
L 3450 685 
L 4672 685 
L 4672 1171 
L 3450 1171 
L 3450 3123 
C 4026 2016 4896 1043 5856 512 
C 5939 646 6106 838 6221 934 
C 5210 1427 4288 2438 3744 3539 
L 5997 3539 
L 5997 4026 
L 3450 4026 
L 3450 5370 
L 2944 5370 
z
" transform="scale(0.015625)"/>
      <path id="NotoSansCJKjp-Regular-4d" d="M 646 0 
L 1178 0 
L 1178 2598 
C 1178 3002 1139 3571 1101 3981 
L 1126 3981 
L 1504 2912 
L 2394 474 
L 2790 474 
L 3674 2912 
L 4051 3981 
L 4077 3981 
C 4045 3571 4000 3002 4000 2598 
L 4000 0 
L 4550 0 
L 4550 4691 
L 3840 4691 
L 2944 2182 
C 2835 1862 2739 1530 2618 1203 
L 2592 1203 
C 2477 1530 2374 1862 2253 2182 
L 1357 4691 
L 646 4691 
L 646 0 
z
" transform="scale(0.015625)"/>
      <path id="NotoSansCJKjp-Regular-61" d="M 1389 -83 
C 1818 -83 2208 141 2541 416 
L 2560 416 
L 2611 0 
L 3091 0 
L 3091 2138 
C 3091 3002 2739 3565 1888 3565 
C 1325 3565 838 3315 525 3110 
L 749 2707 
C 1024 2893 1389 3078 1792 3078 
C 2362 3078 2509 2650 2509 2202 
C 1030 2035 378 1658 378 902 
C 378 275 806 -83 1389 -83 
z
M 1555 390 
C 1210 390 941 544 941 941 
C 941 1389 1338 1677 2509 1811 
L 2509 845 
C 2170 544 1888 390 1555 390 
z
" transform="scale(0.015625)"/>
      <path id="NotoSansCJKjp-Regular-72" d="M 589 0 
L 1178 0 
L 1178 2234 
C 1408 2822 1760 3040 2048 3040 
C 2195 3040 2272 3021 2387 2982 
L 2496 3488 
C 2387 3546 2278 3565 2125 3565 
C 1741 3565 1382 3283 1139 2842 
L 1126 2842 
L 1069 3475 
L 589 3475 
L 589 0 
z
" transform="scale(0.015625)"/>
      <path id="NotoSansCJKjp-Regular-6b" d="M 589 0 
L 1165 0 
L 1165 915 
L 1818 1677 
L 2835 0 
L 3469 0 
L 2157 2074 
L 3315 3475 
L 2662 3475 
L 1190 1645 
L 1165 1645 
L 1165 5094 
L 589 5094 
L 589 0 
z
" transform="scale(0.015625)"/>
      <path id="NotoSansCJKjp-Regular-6f" d="M 1939 -83 
C 2790 -83 3546 582 3546 1734 
C 3546 2893 2790 3565 1939 3565 
C 1088 3565 333 2893 333 1734 
C 333 582 1088 -83 1939 -83 
z
M 1939 403 
C 1338 403 934 934 934 1734 
C 934 2534 1338 3072 1939 3072 
C 2541 3072 2950 2534 2950 1734 
C 2950 934 2541 403 1939 403 
z
" transform="scale(0.015625)"/>
      <path id="NotoSansCJKjp-Regular-76" d="M 1338 0 
L 2022 0 
L 3251 3475 
L 2675 3475 
L 2016 1498 
C 1914 1158 1798 806 1696 474 
L 1664 474 
C 1562 806 1453 1158 1344 1498 
L 691 3475 
L 83 3475 
L 1338 0 
z
" transform="scale(0.015625)"/>
      <path id="NotoSansCJKjp-Regular-94fe" d="M 2246 4992 
C 2438 4640 2656 4160 2746 3853 
L 3162 4006 
C 3066 4314 2842 4774 2637 5126 
L 2246 4992 
z
M 883 5363 
C 736 4762 486 4166 173 3770 
C 256 3667 384 3443 416 3341 
C 608 3584 781 3885 928 4218 
L 2157 4218 
L 2157 4646 
L 1101 4646 
C 1178 4845 1242 5050 1293 5254 
L 883 5363 
z
M 307 2125 
L 307 1702 
L 1030 1702 
L 1030 512 
C 1030 205 826 -13 710 -102 
C 794 -179 922 -339 966 -435 
C 1056 -320 1210 -198 2176 467 
C 2131 557 2067 723 2035 838 
L 1472 467 
L 1472 1702 
L 2182 1702 
L 2182 2125 
L 1472 2125 
L 1472 3027 
L 2042 3027 
L 2042 3450 
L 525 3450 
L 525 3027 
L 1030 3027 
L 1030 2125 
L 307 2125 
z
M 3328 1862 
L 3328 1440 
L 4570 1440 
L 4570 339 
L 4998 339 
L 4998 1440 
L 6080 1440 
L 6080 1862 
L 4998 1862 
L 4998 2714 
L 5939 2714 
L 5946 3123 
L 4998 3123 
L 4998 3891 
L 4570 3891 
L 4570 3123 
L 3898 3123 
C 4058 3443 4218 3808 4365 4198 
L 6112 4198 
L 6112 4614 
L 4512 4614 
C 4589 4845 4659 5075 4723 5299 
L 4262 5395 
C 4211 5133 4141 4864 4064 4614 
L 3270 4614 
L 3270 4198 
L 3923 4198 
C 3808 3853 3693 3578 3642 3462 
C 3533 3232 3443 3066 3341 3040 
C 3392 2925 3462 2714 3482 2624 
C 3539 2675 3738 2714 3981 2714 
L 4570 2714 
L 4570 1862 
L 3328 1862 
z
M 3123 3098 
L 2067 3098 
L 2067 2656 
L 2682 2656 
L 2682 595 
C 2445 486 2182 256 1926 -13 
L 2240 -454 
C 2490 -102 2765 237 2944 237 
C 3072 237 3245 70 3462 -77 
C 3802 -294 4192 -378 4730 -378 
C 5114 -378 5766 -358 6106 -339 
C 6112 -205 6170 26 6221 154 
C 5798 102 5139 77 4736 77 
C 4237 77 3859 134 3546 339 
C 3366 454 3238 557 3123 614 
L 3123 3098 
z
" transform="scale(0.015625)"/>
     </defs>
     <use xlink:href="#NotoSansCJKjp-Regular-72ec"/>
     <use xlink:href="#NotoSansCJKjp-Regular-7acb" transform="translate(99.999985 0)"/>
     <use xlink:href="#NotoSansCJKjp-Regular-6837" transform="translate(199.999969 0)"/>
     <use xlink:href="#NotoSansCJKjp-Regular-672c" transform="translate(299.999954 0)"/>
     <use xlink:href="#NotoSansCJKjp-Regular-20" transform="translate(399.999939 0)"/>
     <use xlink:href="#NotoSansCJKjp-Regular-2f" transform="translate(422.399933 0)"/>
     <use xlink:href="#NotoSansCJKjp-Regular-20" transform="translate(461.59993 0)"/>
     <use xlink:href="#NotoSansCJKjp-Regular-4d" transform="translate(483.999924 0)"/>
     <use xlink:href="#NotoSansCJKjp-Regular-61" transform="translate(565.199905 0)"/>
     <use xlink:href="#NotoSansCJKjp-Regular-72" transform="translate(621.499893 0)"/>
     <use xlink:href="#NotoSansCJKjp-Regular-6b" transform="translate(660.299881 0)"/>
     <use xlink:href="#NotoSansCJKjp-Regular-6f" transform="translate(715.499878 0)"/>
     <use xlink:href="#NotoSansCJKjp-Regular-76" transform="translate(776.099869 0)"/>
     <use xlink:href="#NotoSansCJKjp-Regular-94fe" transform="translate(828.19986 0)"/>
    </g>
   </g>
   <g id="patch_7">
    <path d="M 413.74782 82.044 
Q 421.514456 82.044 427.045024 82.044 
" style="fill: none; stroke: #d37b17; stroke-width: 2; stroke-linecap: round"/>
    <path d="M 422.645024 79.844 
L 427.045024 82.044 
L 422.645024 84.244 
" style="fill: none; stroke: #d37b17; stroke-width: 2; stroke-linecap: round"/>
   </g>
   <g id="text_4">
    <g id="patch_8">
     <path d="M 436.86 108.407563 
L 531.91375 108.407563 
Q 539.61375 108.407563 539.61375 100.707563 
L 539.61375 63.380438 
Q 539.61375 55.680438 531.91375 55.680438 
L 436.86 55.680438 
Q 429.16 55.680438 429.16 63.380438 
L 429.16 100.707563 
Q 429.16 108.407563 436.86 108.407563 
z
" style="fill: #e8f2f7; stroke: #156b99; stroke-linejoin: miter"/>
    </g>
    <!-- 有限估计 -->
    <g transform="translate(436.86 72.13575) scale(0.11 -0.11)">
     <defs>
      <path id="NotoSansCJKjp-Regular-6709" d="M 2502 5376 
C 2426 5101 2336 4819 2221 4544 
L 403 4544 
L 403 4096 
L 2022 4096 
C 1613 3251 1024 2470 256 1946 
C 346 1856 499 1683 563 1574 
C 966 1862 1325 2208 1632 2598 
L 1632 -506 
L 2106 -506 
L 2106 762 
L 4787 762 
L 4787 96 
C 4787 0 4755 -38 4646 -38 
C 4525 -45 4134 -51 3712 -32 
C 3776 -166 3846 -365 3872 -493 
C 4422 -493 4774 -493 4986 -422 
C 5197 -339 5261 -192 5261 90 
L 5261 3354 
L 2150 3354 
C 2298 3597 2426 3840 2541 4096 
L 6010 4096 
L 6010 4544 
L 2733 4544 
C 2829 4781 2912 5024 2989 5261 
L 2502 5376 
z
M 2106 1850 
L 4787 1850 
L 4787 1178 
L 2106 1178 
L 2106 1850 
z
M 2106 2259 
L 2106 2918 
L 4787 2918 
L 4787 2259 
L 2106 2259 
z
" transform="scale(0.015625)"/>
      <path id="NotoSansCJKjp-Regular-9650" d="M 3309 3482 
L 5261 3482 
L 5261 2675 
L 3309 2675 
L 3309 3482 
z
M 3309 3885 
L 3309 4672 
L 5261 4672 
L 5261 3885 
L 3309 3885 
z
M 5632 2106 
C 5414 1862 5082 1562 4774 1325 
C 4634 1613 4518 1926 4422 2253 
L 5734 2253 
L 5734 5094 
L 2842 5094 
L 2842 179 
L 2118 45 
L 2278 -422 
C 2906 -282 3757 -90 4570 96 
L 4531 512 
L 3309 269 
L 3309 2253 
L 4000 2253 
C 4314 992 4896 -6 5850 -493 
C 5920 -371 6061 -186 6170 -96 
C 5670 128 5274 506 4966 986 
C 5299 1222 5696 1536 6003 1830 
L 5632 2106 
z
M 525 5101 
L 525 -512 
L 979 -512 
L 979 4666 
L 1920 4666 
C 1766 4224 1555 3635 1350 3168 
C 1856 2662 1990 2240 1990 1888 
C 1990 1696 1952 1530 1850 1459 
C 1779 1414 1702 1402 1619 1389 
C 1504 1389 1363 1389 1197 1408 
C 1274 1280 1318 1088 1325 966 
C 1485 960 1664 954 1805 973 
C 1939 992 2067 1024 2163 1094 
C 2349 1222 2438 1485 2432 1843 
C 2432 2240 2310 2694 1792 3226 
C 2035 3731 2298 4390 2502 4922 
L 2182 5120 
L 2106 5101 
L 525 5101 
z
" transform="scale(0.015625)"/>
      <path id="NotoSansCJKjp-Regular-4f30" d="M 1702 5350 
C 1344 4378 749 3418 115 2797 
C 205 2688 339 2438 390 2323 
C 608 2547 819 2810 1024 3091 
L 1024 -499 
L 1485 -499 
L 1485 3808 
C 1747 4256 1978 4736 2163 5216 
L 1702 5350 
z
M 2074 3974 
L 2074 3507 
L 3827 3507 
L 3827 2195 
L 2445 2195 
L 2445 -512 
L 2918 -512 
L 2918 -237 
L 5267 -237 
L 5267 -486 
L 5754 -486 
L 5754 2195 
L 4320 2195 
L 4320 3507 
L 6144 3507 
L 6144 3974 
L 4320 3974 
L 4320 5376 
L 3827 5376 
L 3827 3974 
L 2074 3974 
z
M 2918 224 
L 2918 1741 
L 5267 1741 
L 5267 224 
L 2918 224 
z
" transform="scale(0.015625)"/>
     </defs>
     <use xlink:href="#NotoSansCJKjp-Regular-6709"/>
     <use xlink:href="#NotoSansCJKjp-Regular-9650" transform="translate(99.999985 0)"/>
     <use xlink:href="#NotoSansCJKjp-Regular-4f30" transform="translate(199.999969 0)"/>
     <use xlink:href="#NotoSansCJKjp-Regular-8ba1" transform="translate(299.999954 0)"/>
    </g>
    <!--  -->
    <g transform="translate(436.86 85.161813) scale(0.11 -0.11)"/>
    <!-- 均值 + MCSE + 诊断 -->
    <g transform="translate(436.86 98.187875) scale(0.11 -0.11)">
     <defs>
      <path id="NotoSansCJKjp-Regular-5747" d="M 2803 3021 
L 2803 2579 
L 4794 2579 
L 4794 3021 
L 2803 3021 
z
M 2509 954 
L 2707 506 
C 3334 742 4173 1075 4954 1389 
L 4870 1805 
C 4000 1478 3091 1146 2509 954 
z
M 3245 5376 
C 3002 4480 2586 3610 2054 3053 
C 2176 2982 2381 2835 2477 2746 
C 2726 3046 2970 3430 3181 3853 
L 5542 3853 
C 5459 1254 5357 269 5152 51 
C 5075 -32 5005 -58 4877 -51 
C 4723 -51 4326 -51 3898 -13 
C 3981 -154 4045 -358 4058 -499 
C 4442 -518 4838 -531 5062 -506 
C 5293 -486 5440 -429 5587 -237 
C 5843 77 5939 1101 6029 4058 
C 6035 4128 6035 4314 6035 4314 
L 3392 4314 
C 3526 4621 3635 4941 3731 5267 
L 3245 5376 
z
M 218 1030 
L 390 550 
C 986 794 1773 1126 2509 1440 
L 2406 1894 
L 1606 1568 
L 1606 3430 
L 2362 3430 
L 2362 3885 
L 1606 3885 
L 1606 5338 
L 1139 5338 
L 1139 3885 
L 333 3885 
L 333 3430 
L 1139 3430 
L 1139 1382 
C 794 1248 474 1120 218 1030 
z
" transform="scale(0.015625)"/>
      <path id="NotoSansCJKjp-Regular-503c" d="M 3834 5376 
C 3814 5184 3782 4954 3750 4723 
L 2106 4723 
L 2106 4294 
L 3674 4294 
C 3635 4077 3597 3872 3552 3699 
L 2445 3699 
L 2445 90 
L 1830 90 
L 1830 -326 
L 6131 -326 
L 6131 90 
L 5562 90 
L 5562 3699 
L 3987 3699 
C 4038 3872 4090 4077 4134 4294 
L 5939 4294 
L 5939 4723 
L 4230 4723 
L 4346 5344 
L 3834 5376 
z
M 2880 90 
L 2880 621 
L 5114 621 
L 5114 90 
L 2880 90 
z
M 2880 2426 
L 5114 2426 
L 5114 1875 
L 2880 1875 
L 2880 2426 
z
M 2880 2784 
L 2880 3322 
L 5114 3322 
L 5114 2784 
L 2880 2784 
z
M 2880 1530 
L 5114 1530 
L 5114 973 
L 2880 973 
L 2880 1530 
z
M 1690 5370 
C 1350 4397 794 3443 205 2816 
C 288 2701 422 2451 474 2342 
C 659 2547 845 2784 1018 3040 
L 1018 -512 
L 1466 -512 
L 1466 3770 
C 1722 4230 1946 4730 2131 5229 
L 1690 5370 
z
" transform="scale(0.015625)"/>
      <path id="NotoSansCJKjp-Regular-43" d="M 2413 -83 
C 3021 -83 3482 160 3853 589 
L 3526 966 
C 3226 634 2886 435 2438 435 
C 1542 435 979 1178 979 2362 
C 979 3533 1574 4256 2458 4256 
C 2861 4256 3168 4077 3418 3814 
L 3738 4198 
C 3469 4499 3021 4774 2451 4774 
C 1261 4774 371 3859 371 2342 
C 371 819 1242 -83 2413 -83 
z
" transform="scale(0.015625)"/>
      <path id="NotoSansCJKjp-Regular-53" d="M 1946 -83 
C 2925 -83 3539 506 3539 1248 
C 3539 1946 3117 2266 2573 2502 
L 1907 2790 
C 1542 2944 1126 3117 1126 3578 
C 1126 3994 1472 4256 2003 4256 
C 2438 4256 2784 4090 3072 3821 
L 3379 4198 
C 3053 4538 2560 4774 2003 4774 
C 1152 4774 525 4256 525 3533 
C 525 2848 1043 2515 1478 2330 
L 2150 2035 
C 2598 1837 2938 1683 2938 1197 
C 2938 742 2573 435 1952 435 
C 1466 435 992 666 659 1018 
L 307 608 
C 710 186 1280 -83 1946 -83 
z
" transform="scale(0.015625)"/>
      <path id="NotoSansCJKjp-Regular-45" d="M 646 0 
L 3418 0 
L 3418 506 
L 1235 506 
L 1235 2214 
L 3014 2214 
L 3014 2720 
L 1235 2720 
L 1235 4192 
L 3347 4192 
L 3347 4691 
L 646 4691 
L 646 0 
z
" transform="scale(0.015625)"/>
      <path id="NotoSansCJKjp-Regular-8bca" d="M 838 4954 
C 1178 4672 1594 4275 1779 4019 
L 2112 4365 
C 1914 4627 1485 4998 1146 5261 
L 838 4954 
z
M 4237 3578 
C 3885 3142 3232 2707 2675 2458 
C 2790 2368 2912 2234 2982 2131 
C 3565 2426 4218 2906 4627 3411 
L 4237 3578 
z
M 4838 2694 
C 4397 2067 3584 1498 2778 1184 
C 2893 1088 3021 941 3091 826 
C 3923 1197 4749 1811 5235 2515 
L 4838 2694 
z
M 5510 1766 
C 4979 826 3878 205 2522 -96 
C 2630 -211 2746 -390 2803 -512 
C 4230 -141 5350 544 5946 1594 
L 5510 1766 
z
M 294 3366 
L 294 2906 
L 1267 2906 
L 1267 685 
C 1267 346 1030 96 909 -6 
C 992 -77 1146 -237 1203 -333 
C 1306 -205 1478 -77 2605 730 
C 2560 826 2490 1011 2458 1139 
L 1734 646 
L 1734 3366 
L 294 3366 
z
M 4090 5389 
C 3731 4589 3002 3821 2112 3341 
C 2214 3258 2368 3091 2438 2995 
C 3149 3411 3744 3968 4179 4621 
C 4659 4000 5338 3392 5926 3053 
C 6003 3174 6163 3354 6278 3443 
C 5613 3763 4858 4390 4416 5005 
L 4538 5254 
L 4090 5389 
z
" transform="scale(0.015625)"/>
      <path id="NotoSansCJKjp-Regular-65ad" d="M 2963 4947 
C 2874 4614 2701 4115 2560 3802 
L 2854 3699 
C 3002 3987 3194 4448 3347 4832 
L 2963 4947 
z
M 1197 4832 
C 1338 4480 1446 4019 1472 3712 
L 1811 3827 
C 1786 4128 1658 4589 1510 4934 
L 1197 4832 
z
M 2035 5331 
L 2035 3450 
L 1114 3450 
L 1114 3034 
L 1978 3034 
C 1747 2464 1363 1856 998 1523 
C 1069 1421 1165 1248 1210 1126 
C 1510 1414 1805 1888 2035 2381 
L 2035 781 
L 2445 781 
L 2445 2355 
C 2669 2112 2938 1805 3046 1651 
L 3322 1984 
C 3187 2118 2624 2630 2445 2790 
L 2445 3034 
L 3347 3034 
L 3347 3450 
L 2445 3450 
L 2445 5331 
L 2035 5331 
z
M 5709 5274 
C 5306 5069 4602 4864 3955 4723 
L 3616 4826 
L 3616 2586 
C 3616 1952 3578 1216 3283 550 
L 3283 627 
L 947 627 
L 947 5146 
L 518 5146 
L 518 -282 
L 947 -282 
L 947 205 
L 3104 205 
C 3014 51 2899 -96 2771 -237 
C 2886 -294 3053 -461 3117 -570 
C 3955 326 4070 1626 4070 2579 
L 4070 2778 
L 5024 2778 
L 5024 -512 
L 5478 -512 
L 5478 2778 
L 6202 2778 
L 6202 3226 
L 4070 3226 
L 4070 4339 
C 4774 4480 5555 4678 6099 4922 
L 5709 5274 
z
" transform="scale(0.015625)"/>
     </defs>
     <use xlink:href="#NotoSansCJKjp-Regular-5747"/>
     <use xlink:href="#NotoSansCJKjp-Regular-503c" transform="translate(99.999985 0)"/>
     <use xlink:href="#NotoSansCJKjp-Regular-20" transform="translate(199.999969 0)"/>
     <use xlink:href="#NotoSansCJKjp-Regular-2b" transform="translate(222.399963 0)"/>
     <use xlink:href="#NotoSansCJKjp-Regular-20" transform="translate(277.899948 0)"/>
     <use xlink:href="#NotoSansCJKjp-Regular-4d" transform="translate(300.299942 0)"/>
     <use xlink:href="#NotoSansCJKjp-Regular-43" transform="translate(381.499924 0)"/>
     <use xlink:href="#NotoSansCJKjp-Regular-53" transform="translate(445.299911 0)"/>
     <use xlink:href="#NotoSansCJKjp-Regular-45" transform="translate(504.899902 0)"/>
     <use xlink:href="#NotoSansCJKjp-Regular-20" transform="translate(563.799896 0)"/>
     <use xlink:href="#NotoSansCJKjp-Regular-2b" transform="translate(586.19989 0)"/>
     <use xlink:href="#NotoSansCJKjp-Regular-20" transform="translate(641.699875 0)"/>
     <use xlink:href="#NotoSansCJKjp-Regular-8bca" transform="translate(664.099869 0)"/>
     <use xlink:href="#NotoSansCJKjp-Regular-65ad" transform="translate(764.099854 0)"/>
    </g>
   </g>
   <g id="text_5">
    <!-- 参数后验标准差 ≈ 0.348：数据不确定性；MCSE：有限计算不确定性。 -->
    <g style="fill: #156b99" transform="translate(23.94 163.5408) scale(0.11 -0.11)">
     <defs>
      <path id="NotoSansCJKjp-Regular-53c2" d="M 3386 2579 
C 2976 2272 2214 1990 1594 1837 
C 1696 1754 1811 1626 1882 1542 
C 2522 1715 3283 2022 3770 2394 
L 3386 2579 
z
M 4051 1830 
C 3501 1408 2464 1062 1568 890 
C 1664 794 1773 646 1837 538 
C 2784 755 3814 1139 4435 1645 
L 4051 1830 
z
M 4890 1107 
C 4186 410 2752 19 1203 -147 
C 1286 -256 1382 -422 1427 -550 
C 3059 -339 4518 102 5306 909 
L 4890 1107 
z
M 339 3302 
L 339 2880 
L 1907 2880 
C 1440 2330 826 1907 122 1613 
C 230 1530 403 1338 474 1242 
C 1267 1626 1971 2163 2496 2880 
L 3930 2880 
C 4410 2208 5171 1600 5894 1274 
C 5965 1389 6106 1562 6214 1651 
C 5574 1894 4909 2362 4461 2880 
L 6080 2880 
L 6080 3302 
L 2771 3302 
C 2880 3488 2976 3686 3066 3891 
L 5056 3968 
C 5229 3808 5382 3654 5491 3526 
L 5894 3789 
C 5549 4192 4838 4749 4256 5107 
L 3885 4877 
C 4115 4723 4358 4544 4595 4358 
L 2182 4294 
C 2413 4576 2662 4922 2867 5229 
L 2349 5376 
C 2189 5050 1901 4614 1651 4282 
L 582 4262 
L 640 3827 
L 2541 3878 
C 2451 3674 2342 3482 2227 3302 
L 339 3302 
z
" transform="scale(0.015625)"/>
      <path id="NotoSansCJKjp-Regular-51c6" d="M 422 4646 
C 832 4378 1331 3962 1562 3686 
L 1888 4058 
C 1645 4339 1139 4717 730 4986 
L 422 4646 
z
M 230 307 
L 640 -19 
C 1011 518 1459 1235 1805 1843 
L 1453 2157 
C 1075 1504 576 749 230 307 
z
M 4122 2406 
L 4122 1555 
L 2989 1555 
L 2989 2406 
L 4122 2406 
z
M 3046 5376 
C 2733 4410 2208 3469 1606 2867 
C 1709 2790 1888 2592 1958 2502 
C 2157 2714 2349 2963 2528 3232 
L 2528 -512 
L 2989 -512 
L 2989 -205 
L 6144 -205 
L 6144 243 
L 4576 243 
L 4576 1120 
L 5837 1120 
L 5837 1555 
L 4576 1555 
L 4576 2406 
L 5837 2406 
L 5837 2842 
L 4576 2842 
L 4576 3674 
L 5997 3674 
L 5997 4109 
L 4659 4109 
C 4800 4442 4954 4851 5088 5210 
L 4595 5350 
C 4506 4986 4352 4480 4205 4109 
L 3034 4109 
C 3213 4474 3379 4858 3514 5248 
L 3046 5376 
z
M 4122 2842 
L 2989 2842 
L 2989 3674 
L 4122 3674 
L 4122 2842 
z
M 4122 1120 
L 4122 243 
L 2989 243 
L 2989 1120 
L 4122 1120 
z
" transform="scale(0.015625)"/>
      <path id="NotoSansCJKjp-Regular-5dee" d="M 4422 5389 
C 4320 5133 4115 4768 3949 4538 
L 4019 4512 
L 2349 4512 
L 2451 4557 
C 2362 4787 2144 5114 1933 5357 
L 1523 5190 
C 1683 4992 1850 4723 1952 4512 
L 646 4512 
L 646 4090 
L 2944 4090 
L 2944 3526 
L 960 3526 
L 960 3117 
L 2944 3117 
L 2944 2541 
L 358 2541 
L 358 2106 
L 1658 2106 
C 1421 1114 954 314 250 -179 
C 365 -256 563 -429 653 -518 
C 1382 64 1901 960 2182 2106 
L 6042 2106 
L 6042 2541 
L 3437 2541 
L 3437 3117 
L 5478 3117 
L 5478 3526 
L 3437 3526 
L 3437 4090 
L 5798 4090 
L 5798 4512 
L 4442 4512 
C 4595 4717 4774 4986 4928 5235 
L 4422 5389 
z
M 2163 1619 
L 2163 1197 
L 3462 1197 
L 3462 70 
L 1549 70 
L 1549 -352 
L 5914 -352 
L 5914 70 
L 3949 70 
L 3949 1197 
L 5485 1197 
L 5485 1619 
L 2163 1619 
z
" transform="scale(0.015625)"/>
      <path id="NotoSansCJKjp-Regular-2248" d="M 3290 1875 
C 2970 2106 2656 2266 2259 2266 
C 1677 2266 1152 1933 806 1350 
L 1171 1088 
C 1434 1568 1850 1830 2259 1830 
C 2579 1830 2810 1677 3091 1478 
C 3418 1254 3725 1088 4128 1088 
C 4710 1088 5229 1421 5574 2010 
L 5216 2266 
C 4954 1792 4538 1530 4128 1530 
C 3802 1530 3571 1683 3290 1875 
z
M 3290 3386 
C 2970 3610 2656 3776 2259 3776 
C 1677 3776 1152 3443 806 2854 
L 1171 2598 
C 1434 3072 1850 3334 2259 3334 
C 2579 3334 2810 3181 3091 2989 
C 3418 2758 3725 2598 4128 2598 
C 4710 2598 5229 2931 5574 3514 
L 5216 3776 
C 4954 3296 4538 3034 4128 3034 
C 3802 3034 3571 3187 3290 3386 
z
" transform="scale(0.015625)"/>
      <path id="NotoSansCJKjp-Regular-30" d="M 1779 -83 
C 2669 -83 3238 723 3238 2362 
C 3238 3987 2669 4774 1779 4774 
C 883 4774 320 3987 320 2362 
C 320 723 883 -83 1779 -83 
z
M 1779 390 
C 1248 390 883 986 883 2362 
C 883 3731 1248 4314 1779 4314 
C 2310 4314 2675 3731 2675 2362 
C 2675 986 2310 390 1779 390 
z
" transform="scale(0.015625)"/>
      <path id="NotoSansCJKjp-Regular-2e" d="M 890 -83 
C 1120 -83 1312 96 1312 358 
C 1312 627 1120 806 890 806 
C 653 806 467 627 467 358 
C 467 96 653 -83 890 -83 
z
" transform="scale(0.015625)"/>
      <path id="NotoSansCJKjp-Regular-33" d="M 1683 -83 
C 2522 -83 3194 416 3194 1254 
C 3194 1901 2752 2310 2202 2445 
L 2202 2477 
C 2701 2650 3034 3034 3034 3603 
C 3034 4346 2458 4774 1664 4774 
C 1126 4774 710 4538 358 4218 
L 672 3846 
C 941 4115 1267 4301 1645 4301 
C 2138 4301 2438 4006 2438 3558 
C 2438 3053 2112 2662 1139 2662 
L 1139 2214 
C 2227 2214 2598 1843 2598 1274 
C 2598 736 2208 403 1645 403 
C 1114 403 762 659 486 941 
L 186 563 
C 493 224 954 -83 1683 -83 
z
" transform="scale(0.015625)"/>
      <path id="NotoSansCJKjp-Regular-34" d="M 2176 0 
L 2726 0 
L 2726 1293 
L 3354 1293 
L 3354 1760 
L 2726 1760 
L 2726 4691 
L 2080 4691 
L 128 1677 
L 128 1293 
L 2176 1293 
L 2176 0 
z
M 2176 1760 
L 736 1760 
L 1805 3360 
C 1939 3590 2067 3827 2182 4051 
L 2208 4051 
C 2195 3814 2176 3430 2176 3200 
L 2176 1760 
z
" transform="scale(0.015625)"/>
      <path id="NotoSansCJKjp-Regular-ff1a" d="M 3200 3482 
C 3456 3482 3686 3667 3686 3962 
C 3686 4256 3456 4442 3200 4442 
C 2944 4442 2714 4256 2714 3962 
C 2714 3667 2944 3482 3200 3482 
z
M 3200 346 
C 3456 346 3686 538 3686 826 
C 3686 1120 3456 1312 3200 1312 
C 2944 1312 2714 1120 2714 826 
C 2714 538 2944 346 3200 346 
z
" transform="scale(0.015625)"/>
      <path id="NotoSansCJKjp-Regular-636e" d="M 3098 1523 
L 3098 -518 
L 3520 -518 
L 3520 -256 
L 5491 -256 
L 5491 -493 
L 5933 -493 
L 5933 1523 
L 4698 1523 
L 4698 2317 
L 6131 2317 
L 6131 2733 
L 4698 2733 
L 4698 3437 
L 5907 3437 
L 5907 5094 
L 2528 5094 
L 2528 3162 
C 2528 2144 2470 749 1805 -237 
C 1914 -288 2112 -429 2202 -506 
C 2733 275 2912 1363 2970 2317 
L 4243 2317 
L 4243 1523 
L 3098 1523 
z
M 2995 4678 
L 5446 4678 
L 5446 3859 
L 2995 3859 
L 2995 4678 
z
M 2995 3437 
L 4243 3437 
L 4243 2733 
L 2989 2733 
L 2995 3162 
L 2995 3437 
z
M 3520 141 
L 3520 1114 
L 5491 1114 
L 5491 141 
L 3520 141 
z
M 1069 5370 
L 1069 4083 
L 269 4083 
L 269 3635 
L 1069 3635 
L 1069 2234 
C 736 2131 429 2042 186 1978 
L 314 1504 
L 1069 1747 
L 1069 90 
C 1069 0 1037 -26 960 -26 
C 883 -32 634 -32 358 -26 
C 416 -154 480 -352 493 -467 
C 896 -474 1146 -454 1299 -378 
C 1459 -307 1517 -173 1517 90 
L 1517 1894 
L 2253 2138 
L 2182 2579 
L 1517 2368 
L 1517 3635 
L 2240 3635 
L 2240 4083 
L 1517 4083 
L 1517 5370 
L 1069 5370 
z
" transform="scale(0.015625)"/>
      <path id="NotoSansCJKjp-Regular-4e0d" d="M 3578 3059 
C 4339 2547 5299 1792 5754 1299 
L 6144 1670 
C 5664 2163 4691 2880 3936 3366 
L 3578 3059 
z
M 442 4928 
L 442 4435 
L 3290 4435 
C 2656 3341 1555 2259 282 1632 
C 384 1523 531 1331 608 1210 
C 1498 1677 2291 2336 2938 3078 
L 2938 -499 
L 3456 -499 
L 3456 3738 
C 3622 3962 3770 4198 3904 4435 
L 5958 4435 
L 5958 4928 
L 442 4928 
z
" transform="scale(0.015625)"/>
      <path id="NotoSansCJKjp-Regular-786e" d="M 314 5024 
L 314 4582 
L 1107 4582 
C 947 3469 666 2426 173 1747 
C 269 1651 422 1427 474 1331 
C 595 1498 698 1683 800 1882 
L 800 -166 
L 1235 -166 
L 1235 378 
L 2490 378 
L 2490 3117 
L 1267 3117 
C 1395 3578 1498 4070 1574 4582 
L 2707 4582 
L 2707 5024 
L 314 5024 
z
M 1235 2688 
L 2054 2688 
L 2054 806 
L 1235 806 
L 1235 2688 
z
M 4218 1498 
L 3405 1498 
C 3418 1690 3424 1875 3424 2048 
L 3424 2246 
L 4218 2246 
L 4218 1498 
z
M 4640 1498 
L 4640 2246 
L 5472 2246 
L 5472 1498 
L 4640 1498 
z
M 3680 5382 
C 3430 4627 2989 3891 2490 3418 
C 2598 3341 2778 3181 2848 3098 
L 2976 3238 
L 2976 2048 
C 2976 1331 2906 422 2285 -224 
C 2381 -275 2560 -435 2624 -531 
C 3053 -90 3258 499 3354 1075 
L 5472 1075 
L 5472 45 
C 5472 -45 5446 -70 5357 -77 
C 5267 -83 4947 -83 4621 -70 
C 4685 -198 4755 -390 4768 -525 
C 5216 -525 5517 -518 5696 -442 
C 5875 -371 5933 -224 5933 38 
L 5933 3744 
L 4781 3744 
C 4973 4019 5171 4358 5312 4653 
L 4998 4864 
L 4928 4845 
L 3962 4845 
C 4019 4986 4077 5126 4128 5267 
L 3680 5382 
z
M 4218 2630 
L 3424 2630 
L 3424 3328 
L 4218 3328 
L 4218 2630 
z
M 4640 2630 
L 4640 3328 
L 5472 3328 
L 5472 2630 
L 4640 2630 
z
M 3424 3744 
L 3360 3744 
C 3507 3962 3642 4198 3770 4442 
L 4691 4442 
C 4582 4198 4429 3936 4294 3744 
L 3424 3744 
z
" transform="scale(0.015625)"/>
      <path id="NotoSansCJKjp-Regular-5b9a" d="M 1421 2413 
C 1286 1248 934 333 224 -218 
C 339 -294 538 -461 621 -544 
C 1037 -179 1350 307 1574 896 
C 2163 -198 3117 -422 4454 -422 
L 5952 -422 
C 5971 -282 6061 -51 6131 64 
C 5818 58 4717 58 4480 58 
C 4109 58 3757 77 3443 134 
L 3443 1440 
L 5350 1440 
L 5350 1888 
L 3443 1888 
L 3443 2957 
L 5088 2957 
L 5088 3418 
L 1350 3418 
L 1350 2957 
L 2944 2957 
L 2944 269 
C 2419 461 2016 832 1760 1504 
C 1824 1766 1882 2054 1920 2355 
L 1421 2413 
z
M 525 4640 
L 525 3245 
L 998 3245 
L 998 4186 
L 5382 4186 
L 5382 3245 
L 5875 3245 
L 5875 4640 
L 3443 4640 
L 3443 5376 
L 2938 5376 
L 2938 4640 
L 525 4640 
z
" transform="scale(0.015625)"/>
      <path id="NotoSansCJKjp-Regular-6027" d="M 1101 5376 
L 1101 -506 
L 1581 -506 
L 1581 5376 
L 1101 5376 
z
M 512 4160 
C 467 3642 352 2938 179 2509 
L 557 2381 
C 723 2848 838 3584 877 4109 
L 512 4160 
z
M 1626 4198 
C 1811 3846 2003 3379 2067 3091 
L 2426 3277 
C 2355 3546 2157 4000 1965 4346 
L 1626 4198 
z
M 2138 173 
L 2138 -282 
L 6074 -282 
L 6074 173 
L 4461 173 
L 4461 1779 
L 5779 1779 
L 5779 2227 
L 4461 2227 
L 4461 3558 
L 5920 3558 
L 5920 4019 
L 4461 4019 
L 4461 5350 
L 3974 5350 
L 3974 4019 
L 3181 4019 
C 3264 4333 3341 4672 3405 5005 
L 2938 5082 
C 2790 4211 2534 3341 2163 2784 
C 2278 2733 2496 2624 2592 2560 
C 2758 2835 2906 3174 3034 3558 
L 3974 3558 
L 3974 2227 
L 2618 2227 
L 2618 1779 
L 3974 1779 
L 3974 173 
L 2138 173 
z
" transform="scale(0.015625)"/>
      <path id="NotoSansCJKjp-Regular-ff1b" d="M 3200 3482 
C 3456 3482 3686 3667 3686 3962 
C 3686 4256 3456 4442 3200 4442 
C 2944 4442 2714 4256 2714 3962 
C 2714 3667 2944 3482 3200 3482 
z
M 2682 -659 
C 3366 -397 3789 141 3789 883 
C 3789 1363 3590 1664 3238 1664 
C 2982 1664 2752 1504 2752 1203 
C 2752 896 2970 742 3232 742 
L 3347 755 
C 3328 256 3053 -83 2534 -320 
L 2682 -659 
z
" transform="scale(0.015625)"/>
      <path id="NotoSansCJKjp-Regular-3002" d="M 1242 1562 
C 710 1562 269 1126 269 589 
C 269 45 710 -390 1242 -390 
C 1786 -390 2221 45 2221 589 
C 2221 1126 1786 1562 1242 1562 
z
M 1242 -64 
C 890 -64 595 224 595 589 
C 595 941 890 1235 1242 1235 
C 1606 1235 1894 941 1894 589 
C 1894 224 1606 -64 1242 -64 
z
" transform="scale(0.015625)"/>
     </defs>
     <use xlink:href="#NotoSansCJKjp-Regular-53c2"/>
     <use xlink:href="#NotoSansCJKjp-Regular-6570" transform="translate(99.999985 0)"/>
     <use xlink:href="#NotoSansCJKjp-Regular-540e" transform="translate(199.999969 0)"/>
     <use xlink:href="#NotoSansCJKjp-Regular-9a8c" transform="translate(299.999954 0)"/>
     <use xlink:href="#NotoSansCJKjp-Regular-6807" transform="translate(399.999939 0)"/>
     <use xlink:href="#NotoSansCJKjp-Regular-51c6" transform="translate(499.999924 0)"/>
     <use xlink:href="#NotoSansCJKjp-Regular-5dee" transform="translate(599.999908 0)"/>
     <use xlink:href="#NotoSansCJKjp-Regular-20" transform="translate(699.999893 0)"/>
     <use xlink:href="#NotoSansCJKjp-Regular-2248" transform="translate(722.399887 0)"/>
     <use xlink:href="#NotoSansCJKjp-Regular-20" transform="translate(822.399872 0)"/>
     <use xlink:href="#NotoSansCJKjp-Regular-30" transform="translate(844.799866 0)"/>
     <use xlink:href="#NotoSansCJKjp-Regular-2e" transform="translate(900.29985 0)"/>
     <use xlink:href="#NotoSansCJKjp-Regular-33" transform="translate(928.099838 0)"/>
     <use xlink:href="#NotoSansCJKjp-Regular-34" transform="translate(983.599823 0)"/>
     <use xlink:href="#NotoSansCJKjp-Regular-38" transform="translate(1039.099808 0)"/>
     <use xlink:href="#NotoSansCJKjp-Regular-ff1a" transform="translate(1094.599792 0)"/>
     <use xlink:href="#NotoSansCJKjp-Regular-6570" transform="translate(1194.599777 0)"/>
     <use xlink:href="#NotoSansCJKjp-Regular-636e" transform="translate(1294.599762 0)"/>
     <use xlink:href="#NotoSansCJKjp-Regular-4e0d" transform="translate(1394.599747 0)"/>
     <use xlink:href="#NotoSansCJKjp-Regular-786e" transform="translate(1494.599731 0)"/>
     <use xlink:href="#NotoSansCJKjp-Regular-5b9a" transform="translate(1594.599716 0)"/>
     <use xlink:href="#NotoSansCJKjp-Regular-6027" transform="translate(1694.599701 0)"/>
     <use xlink:href="#NotoSansCJKjp-Regular-ff1b" transform="translate(1794.599686 0)"/>
     <use xlink:href="#NotoSansCJKjp-Regular-4d" transform="translate(1894.59967 0)"/>
     <use xlink:href="#NotoSansCJKjp-Regular-43" transform="translate(1975.799652 0)"/>
     <use xlink:href="#NotoSansCJKjp-Regular-53" transform="translate(2039.59964 0)"/>
     <use xlink:href="#NotoSansCJKjp-Regular-45" transform="translate(2099.199631 0)"/>
     <use xlink:href="#NotoSansCJKjp-Regular-ff1a" transform="translate(2158.099625 0)"/>
     <use xlink:href="#NotoSansCJKjp-Regular-6709" transform="translate(2258.099609 0)"/>
     <use xlink:href="#NotoSansCJKjp-Regular-9650" transform="translate(2358.099594 0)"/>
     <use xlink:href="#NotoSansCJKjp-Regular-8ba1" transform="translate(2458.099579 0)"/>
     <use xlink:href="#NotoSansCJKjp-Regular-7b97" transform="translate(2558.099564 0)"/>
     <use xlink:href="#NotoSansCJKjp-Regular-4e0d" transform="translate(2658.099548 0)"/>
     <use xlink:href="#NotoSansCJKjp-Regular-786e" transform="translate(2758.099533 0)"/>
     <use xlink:href="#NotoSansCJKjp-Regular-5b9a" transform="translate(2858.099518 0)"/>
     <use xlink:href="#NotoSansCJKjp-Regular-6027" transform="translate(2958.099503 0)"/>
     <use xlink:href="#NotoSansCJKjp-Regular-3002" transform="translate(3058.099487 0)"/>
    </g>
   </g>
  </g>
 </g>
</svg>
