<?xml version="1.0" encoding="utf-8" standalone="no"?>
<!DOCTYPE svg PUBLIC "-//W3C//DTD SVG 1.1//EN"
  "http://www.w3.org/Graphics/SVG/1.1/DTD/svg11.dtd">
<svg xmlns:xlink="http://www.w3.org/1999/xlink" width="653.302656pt" height="292.880375pt" viewBox="0 0 653.302656 292.880375" xmlns="http://www.w3.org/2000/svg" version="1.1">
 <metadata>
  <rdf:RDF xmlns:dc="http://purl.org/dc/elements/1.1/" xmlns:cc="http://creativecommons.org/ns#" xmlns:rdf="http://www.w3.org/1999/02/22-rdf-syntax-ns#">
   <cc:Work>
    <dc:type rdf:resource="http://purl.org/dc/dcmitype/StillImage"/>
    <dc:date>2026-10-10T04:58:12.012118</dc:date>
    <dc:format>image/svg+xml</dc:format>
    <dc:creator>
     <cc:Agent>
      <dc:title>Matplotlib v3.10.8, https://matplotlib.org/</dc:title>
     </cc:Agent>
    </dc:creator>
   </cc:Work>
  </rdf:RDF>
 </metadata>
 <defs>
  <style type="text/css">*{stroke-linejoin: round; stroke-linecap: butt}</style>
 </defs>
 <g id="figure_1">
  <g id="patch_1">
   <path d="M 0 292.880375 
L 653.302656 292.880375 
L 653.302656 0 
L 0 0 
z
" style="fill: #ffffff"/>
  </g>
  <g id="axes_1">
   <g id="patch_2">
    <path d="M 44.742656 252.130375 
L 320.482656 252.130375 
L 320.482656 23.706375 
L 44.742656 23.706375 
z
" style="fill: #ffffff"/>
   </g>
   <g id="matplotlib.axis_1">
    <g id="xtick_1">
     <g id="line2d_1">
      <path d="M 90.070307 252.130375 
L 90.070307 23.706375 
" clip-path="url(#paf50507c9d)" style="fill: none; stroke: #b0b0b0; stroke-opacity: 0.2; stroke-width: 0.8; stroke-linecap: square"/>
     </g>
     <g id="line2d_2">
      <defs>
       <path id="mecc43aa400" d="M 0 0 
L 0 3.5 
" style="stroke: #000000; stroke-width: 0.8"/>
      </defs>
      <g>
       <use xlink:href="#mecc43aa400" x="90.070307" y="252.130375" style="stroke: #000000; stroke-width: 0.8"/>
      </g>
     </g>
     <g id="text_1">
      <!-- $\mathdefault{10^{-1}}$ -->
      <g transform="translate(79.455307 267.885688) scale(0.11 -0.11)">
       <defs>
        <path id="NotoSansCJKjp-Regular-31" d="M 563 0 
L 3136 0 
L 3136 486 
L 2195 486 
L 2195 4691 
L 1747 4691 
C 1491 4544 1190 4435 774 4358 
L 774 3987 
L 1613 3987 
L 1613 486 
L 563 486 
L 563 0 
z
" transform="scale(0.015625)"/>
        <path id="NotoSansCJKjp-Regular-30" d="M 1779 -83 
C 2669 -83 3238 723 3238 2362 
C 3238 3987 2669 4774 1779 4774 
C 883 4774 320 3987 320 2362 
C 320 723 883 -83 1779 -83 
z
M 1779 390 
C 1248 390 883 986 883 2362 
C 883 3731 1248 4314 1779 4314 
C 2310 4314 2675 3731 2675 2362 
C 2675 986 2310 390 1779 390 
z
" transform="scale(0.015625)"/>
        <path id="NotoSansCJKjp-Regular-2212" d="M 243 2144 
L 3315 2144 
L 3315 2579 
L 243 2579 
L 243 2144 
z
" transform="scale(0.015625)"/>
       </defs>
       <use xlink:href="#NotoSansCJKjp-Regular-31" transform="translate(0 0.684375)"/>
       <use xlink:href="#NotoSansCJKjp-Regular-30" transform="translate(55.499985 0.684375)"/>
       <use xlink:href="#NotoSansCJKjp-Regular-2212" transform="translate(111.950165 38.692188) scale(0.7)"/>
       <use xlink:href="#NotoSansCJKjp-Regular-31" transform="translate(150.800154 38.692188) scale(0.7)"/>
      </g>
     </g>
    </g>
    <g id="xtick_2">
     <g id="line2d_3">
      <path d="M 199.009663 252.130375 
L 199.009663 23.706375 
" clip-path="url(#paf50507c9d)" style="fill: none; stroke: #b0b0b0; stroke-opacity: 0.2; stroke-width: 0.8; stroke-linecap: square"/>
     </g>
     <g id="line2d_4">
      <g>
       <use xlink:href="#mecc43aa400" x="199.009663" y="252.130375" style="stroke: #000000; stroke-width: 0.8"/>
      </g>
     </g>
     <g id="text_2">
      <!-- $\mathdefault{10^{0}}$ -->
      <g transform="translate(190.539663 267.885688) scale(0.11 -0.11)">
       <use xlink:href="#NotoSansCJKjp-Regular-31" transform="translate(0 0.776563)"/>
       <use xlink:href="#NotoSansCJKjp-Regular-30" transform="translate(55.499985 0.776563)"/>
       <use xlink:href="#NotoSansCJKjp-Regular-30" transform="translate(111.950165 38.784375) scale(0.7)"/>
      </g>
     </g>
    </g>
    <g id="xtick_3">
     <g id="line2d_5">
      <path d="M 307.94902 252.130375 
L 307.94902 23.706375 
" clip-path="url(#paf50507c9d)" style="fill: none; stroke: #b0b0b0; stroke-opacity: 0.2; stroke-width: 0.8; stroke-linecap: square"/>
     </g>
     <g id="line2d_6">
      <g>
       <use xlink:href="#mecc43aa400" x="307.94902" y="252.130375" style="stroke: #000000; stroke-width: 0.8"/>
      </g>
     </g>
     <g id="text_3">
      <!-- $\mathdefault{10^{1}}$ -->
      <g transform="translate(299.47902 267.885688) scale(0.11 -0.11)">
       <use xlink:href="#NotoSansCJKjp-Regular-31" transform="translate(0 0.684375)"/>
       <use xlink:href="#NotoSansCJKjp-Regular-30" transform="translate(55.499985 0.684375)"/>
       <use xlink:href="#NotoSansCJKjp-Regular-31" transform="translate(111.950165 38.692188) scale(0.7)"/>
      </g>
     </g>
    </g>
    <g id="xtick_4">
     <g id="line2d_7">
      <defs>
       <path id="ma51ca44d17" d="M 0 0 
L 0 2 
" style="stroke: #000000; stroke-width: 0.6"/>
      </defs>
      <g>
       <use xlink:href="#ma51ca44d17" x="46.718978" y="252.130375" style="stroke: #000000; stroke-width: 0.6"/>
      </g>
     </g>
    </g>
    <g id="xtick_5">
     <g id="line2d_8">
      <g>
       <use xlink:href="#ma51ca44d17" x="57.276293" y="252.130375" style="stroke: #000000; stroke-width: 0.6"/>
      </g>
     </g>
    </g>
    <g id="xtick_6">
     <g id="line2d_9">
      <g>
       <use xlink:href="#ma51ca44d17" x="65.902247" y="252.130375" style="stroke: #000000; stroke-width: 0.6"/>
      </g>
     </g>
    </g>
    <g id="xtick_7">
     <g id="line2d_10">
      <g>
       <use xlink:href="#ma51ca44d17" x="73.195387" y="252.130375" style="stroke: #000000; stroke-width: 0.6"/>
      </g>
     </g>
    </g>
    <g id="xtick_8">
     <g id="line2d_11">
      <g>
       <use xlink:href="#ma51ca44d17" x="79.512992" y="252.130375" style="stroke: #000000; stroke-width: 0.6"/>
      </g>
     </g>
    </g>
    <g id="xtick_9">
     <g id="line2d_12">
      <g>
       <use xlink:href="#ma51ca44d17" x="85.085515" y="252.130375" style="stroke: #000000; stroke-width: 0.6"/>
      </g>
     </g>
    </g>
    <g id="xtick_10">
     <g id="line2d_13">
      <g>
       <use xlink:href="#ma51ca44d17" x="122.864321" y="252.130375" style="stroke: #000000; stroke-width: 0.6"/>
      </g>
     </g>
    </g>
    <g id="xtick_11">
     <g id="line2d_14">
      <g>
       <use xlink:href="#ma51ca44d17" x="142.047589" y="252.130375" style="stroke: #000000; stroke-width: 0.6"/>
      </g>
     </g>
    </g>
    <g id="xtick_12">
     <g id="line2d_15">
      <g>
       <use xlink:href="#ma51ca44d17" x="155.658335" y="252.130375" style="stroke: #000000; stroke-width: 0.6"/>
      </g>
     </g>
    </g>
    <g id="xtick_13">
     <g id="line2d_16">
      <g>
       <use xlink:href="#ma51ca44d17" x="166.215649" y="252.130375" style="stroke: #000000; stroke-width: 0.6"/>
      </g>
     </g>
    </g>
    <g id="xtick_14">
     <g id="line2d_17">
      <g>
       <use xlink:href="#ma51ca44d17" x="174.841603" y="252.130375" style="stroke: #000000; stroke-width: 0.6"/>
      </g>
     </g>
    </g>
    <g id="xtick_15">
     <g id="line2d_18">
      <g>
       <use xlink:href="#ma51ca44d17" x="182.134743" y="252.130375" style="stroke: #000000; stroke-width: 0.6"/>
      </g>
     </g>
    </g>
    <g id="xtick_16">
     <g id="line2d_19">
      <g>
       <use xlink:href="#ma51ca44d17" x="188.452349" y="252.130375" style="stroke: #000000; stroke-width: 0.6"/>
      </g>
     </g>
    </g>
    <g id="xtick_17">
     <g id="line2d_20">
      <g>
       <use xlink:href="#ma51ca44d17" x="194.024872" y="252.130375" style="stroke: #000000; stroke-width: 0.6"/>
      </g>
     </g>
    </g>
    <g id="xtick_18">
     <g id="line2d_21">
      <g>
       <use xlink:href="#ma51ca44d17" x="231.803677" y="252.130375" style="stroke: #000000; stroke-width: 0.6"/>
      </g>
     </g>
    </g>
    <g id="xtick_19">
     <g id="line2d_22">
      <g>
       <use xlink:href="#ma51ca44d17" x="250.986946" y="252.130375" style="stroke: #000000; stroke-width: 0.6"/>
      </g>
     </g>
    </g>
    <g id="xtick_20">
     <g id="line2d_23">
      <g>
       <use xlink:href="#ma51ca44d17" x="264.597691" y="252.130375" style="stroke: #000000; stroke-width: 0.6"/>
      </g>
     </g>
    </g>
    <g id="xtick_21">
     <g id="line2d_24">
      <g>
       <use xlink:href="#ma51ca44d17" x="275.155006" y="252.130375" style="stroke: #000000; stroke-width: 0.6"/>
      </g>
     </g>
    </g>
    <g id="xtick_22">
     <g id="line2d_25">
      <g>
       <use xlink:href="#ma51ca44d17" x="283.78096" y="252.130375" style="stroke: #000000; stroke-width: 0.6"/>
      </g>
     </g>
    </g>
    <g id="xtick_23">
     <g id="line2d_26">
      <g>
       <use xlink:href="#ma51ca44d17" x="291.0741" y="252.130375" style="stroke: #000000; stroke-width: 0.6"/>
      </g>
     </g>
    </g>
    <g id="xtick_24">
     <g id="line2d_27">
      <g>
       <use xlink:href="#ma51ca44d17" x="297.391705" y="252.130375" style="stroke: #000000; stroke-width: 0.6"/>
      </g>
     </g>
    </g>
    <g id="xtick_25">
     <g id="line2d_28">
      <g>
       <use xlink:href="#ma51ca44d17" x="302.964228" y="252.130375" style="stroke: #000000; stroke-width: 0.6"/>
      </g>
     </g>
    </g>
    <g id="text_4">
     <!-- 观测噪声方差 τ² -->
     <g transform="translate(143.292813 283.160687) scale(0.11 -0.11)">
      <defs>
       <path id="NotoSansCJKjp-Regular-89c2" d="M 2957 5062 
L 2957 1658 
L 3411 1658 
L 3411 4634 
L 5299 4634 
L 5299 1658 
L 5773 1658 
L 5773 5062 
L 2957 5062 
z
M 4090 4096 
L 4090 2867 
C 4090 1875 3885 666 2278 -160 
C 2368 -230 2522 -410 2573 -506 
C 3654 51 4160 838 4384 1613 
L 4384 154 
C 4384 -275 4557 -390 4973 -390 
L 5517 -390 
C 6067 -390 6138 -134 6189 877 
C 6074 909 5914 973 5798 1062 
C 5766 147 5734 -26 5523 -26 
L 5050 -26 
C 4877 -26 4826 26 4826 198 
L 4826 1754 
L 4422 1754 
C 4512 2138 4544 2515 4544 2861 
L 4544 4096 
L 4090 4096 
z
M 365 3578 
C 730 3085 1114 2502 1434 1946 
C 1101 1158 685 525 218 115 
C 339 32 499 -134 576 -250 
C 1018 173 1408 730 1728 1414 
C 1926 1043 2080 698 2182 410 
L 2592 691 
C 2458 1050 2234 1498 1965 1965 
C 2272 2771 2496 3725 2618 4806 
L 2310 4902 
L 2227 4883 
L 333 4883 
L 333 4422 
L 2106 4422 
C 2010 3731 1850 3078 1645 2490 
C 1357 2957 1037 3418 730 3821 
L 365 3578 
z
" transform="scale(0.015625)"/>
       <path id="NotoSansCJKjp-Regular-6d4b" d="M 3110 589 
C 3437 269 3814 -179 3994 -467 
L 4307 -250 
C 4122 26 3738 461 3411 774 
L 3110 589 
z
M 1997 5005 
L 1997 986 
L 2374 986 
L 2374 4634 
L 3763 4634 
L 3763 1005 
L 4154 1005 
L 4154 5005 
L 1997 5005 
z
M 5549 5293 
L 5549 45 
C 5549 -51 5510 -83 5421 -83 
C 5331 -90 5030 -90 4691 -83 
C 4749 -198 4813 -384 4832 -486 
C 5280 -493 5555 -480 5722 -410 
C 5882 -339 5946 -218 5946 45 
L 5946 5293 
L 5549 5293 
z
M 4672 4800 
L 4672 966 
L 5056 966 
L 5056 4800 
L 4672 4800 
z
M 2854 4179 
L 2854 1914 
C 2854 1139 2726 339 1658 -205 
C 1728 -262 1850 -422 1894 -499 
C 3046 83 3226 1050 3226 1907 
L 3226 4179 
L 2854 4179 
z
M 518 4966 
C 877 4768 1338 4461 1555 4256 
L 1850 4646 
C 1619 4838 1152 5120 806 5306 
L 518 4966 
z
M 243 3238 
C 595 3040 1062 2752 1293 2560 
L 1581 2944 
C 1338 3130 864 3405 518 3584 
L 243 3238 
z
M 371 -173 
L 806 -429 
C 1075 160 1395 947 1626 1619 
L 1242 1869 
C 986 1152 627 320 371 -173 
z
" transform="scale(0.015625)"/>
       <path id="NotoSansCJKjp-Regular-566a" d="M 3373 4749 
L 4851 4749 
L 4851 4077 
L 3373 4077 
L 3373 4749 
z
M 2950 5114 
L 2950 3712 
L 5293 3712 
L 5293 5114 
L 2950 5114 
z
M 2688 3072 
L 3533 3072 
L 3533 2342 
L 2688 2342 
L 2688 3072 
z
M 4672 3072 
L 5542 3072 
L 5542 2342 
L 4672 2342 
L 4672 3072 
z
M 480 4794 
L 480 544 
L 877 544 
L 877 1043 
L 1952 1043 
L 1952 4794 
L 480 4794 
z
M 877 4333 
L 1555 4333 
L 1555 1510 
L 877 1510 
L 877 4333 
z
M 3878 1984 
L 3878 1498 
L 2189 1498 
L 2189 1094 
L 3578 1094 
C 3136 621 2438 211 1773 6 
C 1869 -83 2010 -256 2074 -371 
C 2726 -134 3411 307 3878 832 
L 3878 -518 
L 4333 -518 
L 4333 864 
C 4736 378 5331 -77 5875 -314 
C 5952 -198 6086 -32 6189 58 
C 5626 256 5011 659 4621 1094 
L 6086 1094 
L 6086 1498 
L 4333 1498 
L 4333 1984 
L 5946 1984 
L 5946 3424 
L 4288 3424 
L 4288 1984 
L 3923 1984 
L 3923 3424 
L 2310 3424 
L 2310 1984 
L 3878 1984 
z
" transform="scale(0.015625)"/>
       <path id="NotoSansCJKjp-Regular-58f0" d="M 2944 5389 
L 2944 4845 
L 448 4845 
L 448 4422 
L 2944 4422 
L 2944 3795 
L 838 3795 
L 838 3379 
L 5670 3379 
L 5670 3795 
L 3430 3795 
L 3430 4422 
L 5952 4422 
L 5952 4845 
L 3430 4845 
L 3430 5389 
L 2944 5389 
z
M 979 2874 
L 979 2035 
C 979 1357 877 448 186 -218 
C 288 -282 480 -448 557 -544 
C 1024 -90 1261 499 1370 1069 
L 5062 1069 
L 5062 742 
L 5542 742 
L 5542 2874 
L 979 2874 
z
M 5062 1485 
L 3424 1485 
L 3424 2470 
L 5062 2470 
L 5062 1485 
z
M 1427 1485 
C 1446 1677 1453 1862 1453 2029 
L 1453 2470 
L 2957 2470 
L 2957 1485 
L 1427 1485 
z
" transform="scale(0.015625)"/>
       <path id="NotoSansCJKjp-Regular-65b9" d="M 2931 5395 
L 2931 4269 
L 339 4269 
L 339 3808 
L 2310 3808 
C 2240 2330 2054 666 269 -147 
C 397 -243 544 -416 621 -538 
C 1926 90 2438 1152 2669 2298 
L 4787 2298 
C 4685 819 4557 186 4371 19 
C 4294 -51 4211 -58 4064 -58 
C 3898 -58 3443 -51 2982 -13 
C 3078 -147 3142 -346 3155 -480 
C 3584 -506 4013 -512 4230 -499 
C 4480 -486 4634 -435 4781 -282 
C 5030 -26 5165 685 5293 2522 
C 5306 2598 5312 2758 5312 2758 
L 2746 2758 
C 2790 3110 2822 3462 2842 3808 
L 6067 3808 
L 6067 4269 
L 3424 4269 
L 3424 5395 
L 2931 5395 
z
" transform="scale(0.015625)"/>
       <path id="NotoSansCJKjp-Regular-5dee" d="M 4422 5389 
C 4320 5133 4115 4768 3949 4538 
L 4019 4512 
L 2349 4512 
L 2451 4557 
C 2362 4787 2144 5114 1933 5357 
L 1523 5190 
C 1683 4992 1850 4723 1952 4512 
L 646 4512 
L 646 4090 
L 2944 4090 
L 2944 3526 
L 960 3526 
L 960 3117 
L 2944 3117 
L 2944 2541 
L 358 2541 
L 358 2106 
L 1658 2106 
C 1421 1114 954 314 250 -179 
C 365 -256 563 -429 653 -518 
C 1382 64 1901 960 2182 2106 
L 6042 2106 
L 6042 2541 
L 3437 2541 
L 3437 3117 
L 5478 3117 
L 5478 3526 
L 3437 3526 
L 3437 4090 
L 5798 4090 
L 5798 4512 
L 4442 4512 
C 4595 4717 4774 4986 4928 5235 
L 4422 5389 
z
M 2163 1619 
L 2163 1197 
L 3462 1197 
L 3462 70 
L 1549 70 
L 1549 -352 
L 5914 -352 
L 5914 70 
L 3949 70 
L 3949 1197 
L 5485 1197 
L 5485 1619 
L 2163 1619 
z
" transform="scale(0.015625)"/>
       <path id="NotoSansCJKjp-Regular-20" transform="scale(0.015625)"/>
       <path id="NotoSansCJKjp-Regular-3c4" d="M 2061 -83 
C 2278 -83 2477 -38 2618 6 
L 2528 454 
C 2413 422 2304 403 2189 403 
C 1997 403 1901 499 1901 742 
C 1901 1446 1907 2214 1926 3002 
L 3104 3002 
L 3104 3475 
L 678 3475 
L 186 3443 
L 186 3002 
L 1350 3002 
L 1350 781 
C 1350 224 1536 -83 2061 -83 
z
" transform="scale(0.015625)"/>
       <path id="NotoSansCJKjp-Regular-b2" d="M 378 2822 
L 2291 2822 
L 2291 3213 
L 1107 3213 
C 1702 3821 2144 4262 2144 4794 
C 2144 5389 1773 5702 1216 5702 
C 838 5702 499 5478 288 5158 
L 557 4909 
C 710 5139 922 5318 1158 5318 
C 1491 5318 1696 5088 1696 4730 
C 1696 4307 1242 3866 378 3085 
L 378 2822 
z
" transform="scale(0.015625)"/>
      </defs>
      <use xlink:href="#NotoSansCJKjp-Regular-89c2"/>
      <use xlink:href="#NotoSansCJKjp-Regular-6d4b" transform="translate(99.999985 0)"/>
      <use xlink:href="#NotoSansCJKjp-Regular-566a" transform="translate(199.999969 0)"/>
      <use xlink:href="#NotoSansCJKjp-Regular-58f0" transform="translate(299.999954 0)"/>
      <use xlink:href="#NotoSansCJKjp-Regular-65b9" transform="translate(399.999939 0)"/>
      <use xlink:href="#NotoSansCJKjp-Regular-5dee" transform="translate(499.999924 0)"/>
      <use xlink:href="#NotoSansCJKjp-Regular-20" transform="translate(599.999908 0)"/>
      <use xlink:href="#NotoSansCJKjp-Regular-3c4" transform="translate(622.399902 0)"/>
      <use xlink:href="#NotoSansCJKjp-Regular-b2" transform="translate(673.799896 0)"/>
     </g>
    </g>
   </g>
   <g id="matplotlib.axis_2">
    <g id="ytick_1">
     <g id="line2d_29">
      <path d="M 44.742656 252.130375 
L 320.482656 252.130375 
" clip-path="url(#paf50507c9d)" style="fill: none; stroke: #b0b0b0; stroke-opacity: 0.2; stroke-width: 0.8; stroke-linecap: square"/>
     </g>
     <g id="line2d_30">
      <defs>
       <path id="m6862fdaf33" d="M 0 0 
L -3.5 0 
" style="stroke: #000000; stroke-width: 0.8"/>
      </defs>
      <g>
       <use xlink:href="#m6862fdaf33" x="44.742656" y="252.130375" style="stroke: #000000; stroke-width: 0.8"/>
      </g>
     </g>
     <g id="text_5">
      <!-- 0.0 -->
      <g transform="translate(22.475 256.508031) scale(0.11 -0.11)">
       <defs>
        <path id="NotoSansCJKjp-Regular-2e" d="M 890 -83 
C 1120 -83 1312 96 1312 358 
C 1312 627 1120 806 890 806 
C 653 806 467 627 467 358 
C 467 96 653 -83 890 -83 
z
" transform="scale(0.015625)"/>
       </defs>
       <use xlink:href="#NotoSansCJKjp-Regular-30"/>
       <use xlink:href="#NotoSansCJKjp-Regular-2e" transform="translate(55.499985 0)"/>
       <use xlink:href="#NotoSansCJKjp-Regular-30" transform="translate(83.299973 0)"/>
      </g>
     </g>
    </g>
    <g id="ytick_2">
     <g id="line2d_31">
      <path d="M 44.742656 206.445575 
L 320.482656 206.445575 
" clip-path="url(#paf50507c9d)" style="fill: none; stroke: #b0b0b0; stroke-opacity: 0.2; stroke-width: 0.8; stroke-linecap: square"/>
     </g>
     <g id="line2d_32">
      <g>
       <use xlink:href="#m6862fdaf33" x="44.742656" y="206.445575" style="stroke: #000000; stroke-width: 0.8"/>
      </g>
     </g>
     <g id="text_6">
      <!-- 0.2 -->
      <g transform="translate(22.475 210.823231) scale(0.11 -0.11)">
       <defs>
        <path id="NotoSansCJKjp-Regular-32" d="M 282 0 
L 3232 0 
L 3232 506 
L 1933 506 
C 1696 506 1408 480 1165 461 
C 2266 1504 3008 2458 3008 3398 
C 3008 4230 2477 4774 1638 4774 
C 1043 4774 634 4506 256 4090 
L 595 3757 
C 858 4070 1184 4301 1568 4301 
C 2150 4301 2432 3910 2432 3373 
C 2432 2566 1754 1632 282 346 
L 282 0 
z
" transform="scale(0.015625)"/>
       </defs>
       <use xlink:href="#NotoSansCJKjp-Regular-30"/>
       <use xlink:href="#NotoSansCJKjp-Regular-2e" transform="translate(55.499985 0)"/>
       <use xlink:href="#NotoSansCJKjp-Regular-32" transform="translate(83.299973 0)"/>
      </g>
     </g>
    </g>
    <g id="ytick_3">
     <g id="line2d_33">
      <path d="M 44.742656 160.760775 
L 320.482656 160.760775 
" clip-path="url(#paf50507c9d)" style="fill: none; stroke: #b0b0b0; stroke-opacity: 0.2; stroke-width: 0.8; stroke-linecap: square"/>
     </g>
     <g id="line2d_34">
      <g>
       <use xlink:href="#m6862fdaf33" x="44.742656" y="160.760775" style="stroke: #000000; stroke-width: 0.8"/>
      </g>
     </g>
     <g id="text_7">
      <!-- 0.4 -->
      <g transform="translate(22.475 165.138431) scale(0.11 -0.11)">
       <defs>
        <path id="NotoSansCJKjp-Regular-34" d="M 2176 0 
L 2726 0 
L 2726 1293 
L 3354 1293 
L 3354 1760 
L 2726 1760 
L 2726 4691 
L 2080 4691 
L 128 1677 
L 128 1293 
L 2176 1293 
L 2176 0 
z
M 2176 1760 
L 736 1760 
L 1805 3360 
C 1939 3590 2067 3827 2182 4051 
L 2208 4051 
C 2195 3814 2176 3430 2176 3200 
L 2176 1760 
z
" transform="scale(0.015625)"/>
       </defs>
       <use xlink:href="#NotoSansCJKjp-Regular-30"/>
       <use xlink:href="#NotoSansCJKjp-Regular-2e" transform="translate(55.499985 0)"/>
       <use xlink:href="#NotoSansCJKjp-Regular-34" transform="translate(83.299973 0)"/>
      </g>
     </g>
    </g>
    <g id="ytick_4">
     <g id="line2d_35">
      <path d="M 44.742656 115.075975 
L 320.482656 115.075975 
" clip-path="url(#paf50507c9d)" style="fill: none; stroke: #b0b0b0; stroke-opacity: 0.2; stroke-width: 0.8; stroke-linecap: square"/>
     </g>
     <g id="line2d_36">
      <g>
       <use xlink:href="#m6862fdaf33" x="44.742656" y="115.075975" style="stroke: #000000; stroke-width: 0.8"/>
      </g>
     </g>
     <g id="text_8">
      <!-- 0.6 -->
      <g transform="translate(22.475 119.453631) scale(0.11 -0.11)">
       <defs>
        <path id="NotoSansCJKjp-Regular-36" d="M 1926 -83 
C 2656 -83 3277 531 3277 1440 
C 3277 2426 2765 2912 1971 2912 
C 1606 2912 1197 2701 909 2349 
C 934 3802 1466 4294 2118 4294 
C 2400 4294 2682 4154 2861 3936 
L 3194 4294 
C 2931 4576 2579 4774 2093 4774 
C 1184 4774 358 4077 358 2240 
C 358 691 1030 -83 1926 -83 
z
M 922 1882 
C 1229 2317 1587 2477 1875 2477 
C 2445 2477 2720 2074 2720 1440 
C 2720 800 2374 378 1926 378 
C 1338 378 986 909 922 1882 
z
" transform="scale(0.015625)"/>
       </defs>
       <use xlink:href="#NotoSansCJKjp-Regular-30"/>
       <use xlink:href="#NotoSansCJKjp-Regular-2e" transform="translate(55.499985 0)"/>
       <use xlink:href="#NotoSansCJKjp-Regular-36" transform="translate(83.299973 0)"/>
      </g>
     </g>
    </g>
    <g id="ytick_5">
     <g id="line2d_37">
      <path d="M 44.742656 69.391175 
L 320.482656 69.391175 
" clip-path="url(#paf50507c9d)" style="fill: none; stroke: #b0b0b0; stroke-opacity: 0.2; stroke-width: 0.8; stroke-linecap: square"/>
     </g>
     <g id="line2d_38">
      <g>
       <use xlink:href="#m6862fdaf33" x="44.742656" y="69.391175" style="stroke: #000000; stroke-width: 0.8"/>
      </g>
     </g>
     <g id="text_9">
      <!-- 0.8 -->
      <g transform="translate(22.475 73.768831) scale(0.11 -0.11)">
       <defs>
        <path id="NotoSansCJKjp-Regular-38" d="M 1792 -83 
C 2669 -83 3258 448 3258 1126 
C 3258 1773 2880 2125 2470 2362 
L 2470 2394 
C 2746 2611 3091 3034 3091 3526 
C 3091 4250 2605 4762 1805 4762 
C 1075 4762 518 4282 518 3571 
C 518 3078 813 2726 1152 2490 
L 1152 2464 
C 723 2234 294 1792 294 1165 
C 294 442 922 -83 1792 -83 
z
M 2112 2547 
C 1555 2765 1050 3014 1050 3571 
C 1050 4026 1363 4326 1798 4326 
C 2298 4326 2592 3962 2592 3494 
C 2592 3149 2426 2829 2112 2547 
z
M 1798 352 
C 1235 352 813 717 813 1216 
C 813 1664 1082 2035 1459 2278 
C 2125 2010 2701 1779 2701 1146 
C 2701 678 2342 352 1798 352 
z
" transform="scale(0.015625)"/>
       </defs>
       <use xlink:href="#NotoSansCJKjp-Regular-30"/>
       <use xlink:href="#NotoSansCJKjp-Regular-2e" transform="translate(55.499985 0)"/>
       <use xlink:href="#NotoSansCJKjp-Regular-38" transform="translate(83.299973 0)"/>
      </g>
     </g>
    </g>
    <g id="ytick_6">
     <g id="line2d_39">
      <path d="M 44.742656 23.706375 
L 320.482656 23.706375 
" clip-path="url(#paf50507c9d)" style="fill: none; stroke: #b0b0b0; stroke-opacity: 0.2; stroke-width: 0.8; stroke-linecap: square"/>
     </g>
     <g id="line2d_40">
      <g>
       <use xlink:href="#m6862fdaf33" x="44.742656" y="23.706375" style="stroke: #000000; stroke-width: 0.8"/>
      </g>
     </g>
     <g id="text_10">
      <!-- 1.0 -->
      <g transform="translate(22.475 28.084031) scale(0.11 -0.11)">
       <use xlink:href="#NotoSansCJKjp-Regular-31"/>
       <use xlink:href="#NotoSansCJKjp-Regular-2e" transform="translate(55.499985 0)"/>
       <use xlink:href="#NotoSansCJKjp-Regular-30" transform="translate(83.299973 0)"/>
      </g>
     </g>
    </g>
    <g id="text_11">
     <!-- 后验相关系数的绝对值 -->
     <g transform="translate(15.955313 192.918375) rotate(-90) scale(0.11 -0.11)">
      <defs>
       <path id="NotoSansCJKjp-Regular-540e" d="M 5222 5325 
C 4352 5088 2829 4902 1446 4787 
L 954 4883 
L 954 3085 
C 954 2099 883 774 205 -198 
C 326 -256 512 -416 582 -518 
C 1338 538 1434 2048 1434 3078 
L 1434 3142 
L 6163 3142 
L 6163 3603 
L 1434 3603 
L 1434 4358 
C 2886 4461 4518 4653 5626 4947 
L 5222 5325 
z
M 1997 2227 
L 1997 -518 
L 2458 -518 
L 2458 -186 
L 5114 -186 
L 5114 -506 
L 5600 -506 
L 5600 2227 
L 1997 2227 
z
M 2458 262 
L 2458 1779 
L 5114 1779 
L 5114 262 
L 2458 262 
z
" transform="scale(0.015625)"/>
       <path id="NotoSansCJKjp-Regular-9a8c" d="M 198 947 
L 301 544 
C 781 678 1370 838 1946 1005 
L 1901 1376 
C 1267 1210 646 1043 198 947 
z
M 3411 3392 
L 3411 2976 
L 5318 2976 
L 5318 3392 
L 3411 3392 
z
M 2989 2317 
C 3174 1830 3347 1190 3398 774 
L 3795 883 
C 3738 1299 3552 1926 3366 2406 
L 2989 2317 
z
M 4122 2477 
C 4230 1997 4346 1357 4378 941 
L 4774 1005 
C 4736 1421 4621 2048 4493 2534 
L 4122 2477 
z
M 685 4198 
C 640 3507 563 2554 480 1990 
L 2202 1990 
C 2118 672 2016 154 1882 13 
C 1830 -51 1760 -64 1658 -64 
C 1536 -64 1242 -58 928 -26 
C 998 -141 1050 -307 1056 -429 
C 1363 -448 1664 -454 1824 -442 
C 2016 -422 2131 -384 2240 -250 
C 2445 -45 2534 557 2637 2189 
C 2643 2246 2650 2387 2650 2387 
L 2221 2381 
L 2144 2381 
C 2221 3072 2317 4224 2381 5088 
L 410 5088 
L 410 4672 
L 1939 4672 
C 1888 3904 1805 2995 1728 2381 
L 941 2381 
C 998 2918 1056 3616 1094 4173 
L 685 4198 
z
M 4269 5421 
C 3872 4525 3168 3738 2400 3251 
C 2490 3155 2630 2963 2688 2867 
C 3290 3290 3872 3891 4314 4595 
C 4762 3974 5408 3309 5990 2886 
C 6042 3014 6150 3219 6234 3328 
C 5638 3712 4947 4390 4544 4998 
L 4685 5286 
L 4269 5421 
z
M 2784 224 
L 2784 -198 
L 6048 -198 
L 6048 224 
L 5069 224 
C 5382 813 5741 1658 6003 2336 
L 5568 2445 
C 5357 1773 4966 819 4653 224 
L 2784 224 
z
" transform="scale(0.015625)"/>
       <path id="NotoSansCJKjp-Regular-76f8" d="M 3494 3034 
L 5440 3034 
L 5440 1920 
L 3494 1920 
L 3494 3034 
z
M 3494 3469 
L 3494 4544 
L 5440 4544 
L 5440 3469 
L 3494 3469 
z
M 3494 1478 
L 5440 1478 
L 5440 365 
L 3494 365 
L 3494 1478 
z
M 3027 4998 
L 3027 -467 
L 3494 -467 
L 3494 -77 
L 5440 -77 
L 5440 -448 
L 5926 -448 
L 5926 4998 
L 3027 4998 
z
M 1370 5376 
L 1370 4006 
L 333 4006 
L 333 3546 
L 1312 3546 
C 1088 2662 634 1651 186 1120 
C 262 1005 384 813 435 685 
C 781 1126 1120 1837 1370 2573 
L 1370 -506 
L 1837 -506 
L 1837 2419 
C 2080 2106 2368 1709 2490 1498 
L 2784 1888 
C 2643 2061 2061 2746 1837 2970 
L 1837 3546 
L 2752 3546 
L 2752 4006 
L 1837 4006 
L 1837 5376 
L 1370 5376 
z
" transform="scale(0.015625)"/>
       <path id="NotoSansCJKjp-Regular-5173" d="M 4378 5370 
C 4237 5005 3968 4493 3750 4173 
L 4141 4013 
C 4371 4314 4646 4781 4877 5197 
L 4378 5370 
z
M 1574 5107 
C 1837 4768 2106 4301 2214 3987 
L 2637 4218 
C 2522 4518 2240 4973 1965 5299 
L 1574 5107 
z
M 1075 2374 
L 1075 1920 
L 2880 1920 
C 2778 1203 2374 410 877 -154 
C 992 -250 1146 -422 1210 -531 
C 2483 0 3034 698 3258 1395 
C 3635 480 4250 -173 5158 -512 
C 5229 -378 5370 -192 5485 -90 
C 4493 218 3853 941 3520 1920 
L 5338 1920 
L 5338 2374 
L 3411 2374 
L 3411 2490 
L 3411 3469 
L 5082 3469 
L 5082 3930 
L 1318 3930 
L 1318 3469 
L 2918 3469 
L 2918 2496 
L 2918 2374 
L 1075 2374 
z
" transform="scale(0.015625)"/>
       <path id="NotoSansCJKjp-Regular-7cfb" d="M 1715 1222 
C 1363 749 787 262 243 -51 
C 371 -128 582 -288 678 -378 
C 1197 -32 1805 512 2208 1043 
L 1715 1222 
z
M 4109 986 
C 4666 582 5350 -6 5677 -371 
L 6093 -64 
C 5741 301 5037 864 4493 1248 
L 4109 986 
z
M 5286 5286 
C 4179 5062 2208 4928 557 4883 
C 602 4768 659 4576 672 4448 
C 1235 4461 1843 4486 2445 4525 
C 2195 4198 1882 3840 1594 3565 
L 1158 3827 
L 832 3533 
C 1344 3232 1939 2790 2310 2445 
C 2125 2291 1933 2150 1760 2016 
L 358 2003 
L 403 1517 
L 2938 1581 
L 2938 -512 
L 3443 -512 
L 3443 1594 
L 5293 1645 
C 5466 1459 5613 1286 5715 1139 
L 6138 1427 
C 5811 1862 5126 2509 4563 2957 
L 4173 2707 
C 4403 2522 4646 2298 4883 2074 
L 2464 2029 
C 3226 2618 4083 3398 4730 4077 
L 4269 4326 
C 3853 3846 3270 3270 2682 2765 
C 2490 2938 2227 3136 1952 3328 
C 2317 3661 2739 4122 3072 4525 
L 3002 4563 
C 3974 4634 4915 4736 5632 4877 
L 5286 5286 
z
" transform="scale(0.015625)"/>
       <path id="NotoSansCJKjp-Regular-6570" d="M 2803 5254 
C 2688 4998 2483 4627 2317 4403 
L 2643 4243 
C 2816 4454 3027 4781 3219 5075 
L 2803 5254 
z
M 531 5075 
C 704 4806 870 4454 928 4230 
L 1312 4397 
C 1248 4627 1075 4973 890 5222 
L 531 5075 
z
M 4026 5382 
C 3846 4243 3507 3162 2970 2490 
C 3078 2413 3283 2246 3360 2163 
C 3533 2394 3693 2669 3827 2970 
C 3974 2310 4160 1709 4410 1184 
C 4090 698 3667 314 3110 19 
C 2912 166 2656 326 2374 480 
C 2598 774 2746 1126 2829 1562 
L 3398 1562 
L 3398 1958 
L 1677 1958 
L 1894 2413 
L 1779 2438 
L 2061 2438 
L 2061 3398 
C 2374 3168 2771 2854 2938 2701 
L 3206 3046 
C 3034 3174 2336 3616 2061 3776 
L 2061 3802 
L 3373 3802 
L 3373 4198 
L 2061 4198 
L 2061 5382 
L 1613 5382 
L 1613 4198 
L 288 4198 
L 288 3802 
L 1485 3802 
C 1171 3379 678 2982 218 2784 
C 314 2694 422 2528 480 2419 
C 870 2637 1293 2989 1613 3373 
L 1613 2477 
L 1440 2515 
L 1178 1958 
L 250 1958 
L 250 1562 
L 979 1562 
C 806 1222 627 896 486 653 
L 909 506 
L 1005 678 
C 1222 589 1434 493 1638 384 
C 1306 147 858 -13 269 -109 
C 352 -211 448 -384 480 -512 
C 1171 -365 1683 -154 2061 160 
C 2355 -13 2611 -186 2810 -352 
L 2963 -192 
C 3046 -301 3136 -448 3174 -531 
C 3802 -205 4288 205 4666 710 
C 4979 192 5370 -224 5862 -512 
C 5939 -378 6093 -192 6208 -96 
C 5690 173 5280 614 4960 1165 
C 5350 1856 5594 2707 5754 3750 
L 6144 3750 
L 6144 4198 
L 4262 4198 
C 4358 4557 4442 4928 4506 5312 
L 4026 5382 
z
M 1478 1562 
L 2368 1562 
C 2285 1216 2157 928 1965 698 
C 1715 819 1459 934 1197 1030 
L 1478 1562 
z
M 4134 3750 
L 5254 3750 
C 5139 2950 4966 2266 4698 1696 
C 4435 2298 4250 3002 4134 3750 
z
" transform="scale(0.015625)"/>
       <path id="NotoSansCJKjp-Regular-7684" d="M 3533 2707 
C 3885 2240 4320 1600 4512 1210 
L 4922 1466 
C 4710 1843 4269 2464 3904 2918 
L 3533 2707 
z
M 1536 5389 
C 1485 5082 1376 4659 1274 4346 
L 557 4346 
L 557 -346 
L 998 -346 
L 998 160 
L 2784 160 
L 2784 4346 
L 1715 4346 
C 1824 4621 1946 4979 2054 5299 
L 1536 5389 
z
M 998 3917 
L 2342 3917 
L 2342 2566 
L 998 2566 
L 998 3917 
z
M 998 595 
L 998 2144 
L 2342 2144 
L 2342 595 
L 998 595 
z
M 3827 5402 
C 3622 4518 3277 3635 2835 3066 
C 2950 3002 3149 2867 3238 2790 
C 3456 3098 3661 3488 3840 3923 
L 5478 3923 
C 5402 1357 5299 371 5094 154 
C 5018 64 4947 45 4819 45 
C 4672 45 4288 51 3866 83 
C 3955 -38 4013 -243 4026 -378 
C 4384 -397 4762 -410 4979 -390 
C 5210 -365 5350 -314 5498 -122 
C 5754 192 5843 1184 5939 4122 
C 5946 4186 5946 4365 5946 4365 
L 4013 4365 
C 4115 4666 4211 4986 4288 5299 
L 3827 5402 
z
" transform="scale(0.015625)"/>
       <path id="NotoSansCJKjp-Regular-7edd" d="M 250 339 
L 339 -122 
C 966 45 1805 243 2611 448 
L 2566 858 
C 1709 653 826 461 250 339 
z
M 371 2707 
C 474 2752 621 2790 1440 2899 
C 1146 2477 870 2144 749 2016 
C 544 1779 390 1619 250 1594 
C 301 1472 378 1261 397 1165 
C 538 1248 762 1306 2528 1664 
C 2522 1760 2515 1939 2528 2067 
L 1082 1798 
C 1594 2368 2093 3072 2528 3782 
L 2138 4019 
C 2016 3789 1875 3558 1734 3334 
L 883 3251 
C 1280 3808 1670 4518 1978 5203 
L 1530 5414 
C 1248 4627 755 3776 595 3558 
C 448 3341 333 3187 211 3162 
C 269 3034 346 2803 371 2707 
z
M 4090 3149 
L 4090 1971 
L 3270 1971 
L 3270 3149 
L 4090 3149 
z
M 4506 3149 
L 5325 3149 
L 5325 1971 
L 4506 1971 
L 4506 3149 
z
M 4717 4314 
C 4589 4058 4422 3776 4275 3584 
L 4288 3571 
L 3078 3571 
C 3245 3795 3405 4045 3558 4314 
L 4717 4314 
z
M 3590 5446 
C 3309 4678 2842 3917 2330 3418 
C 2438 3354 2618 3200 2701 3123 
L 2822 3258 
L 2822 371 
C 2822 -250 3040 -403 3744 -403 
C 3898 -403 5107 -403 5274 -403 
C 5914 -403 6054 -154 6125 685 
C 5997 717 5811 787 5696 870 
C 5664 166 5606 26 5254 26 
C 4998 26 3962 26 3763 26 
C 3347 26 3270 83 3270 371 
L 3270 1555 
L 5773 1555 
L 5773 3571 
L 4755 3571 
C 4979 3866 5197 4230 5363 4557 
L 5062 4762 
L 4973 4736 
L 3776 4736 
C 3872 4928 3955 5126 4032 5325 
L 3590 5446 
z
" transform="scale(0.015625)"/>
       <path id="NotoSansCJKjp-Regular-5bf9" d="M 3213 2522 
C 3514 2067 3802 1459 3904 1075 
L 4326 1286 
C 4224 1670 3917 2259 3603 2701 
L 3213 2522 
z
M 582 2899 
C 973 2547 1389 2131 1760 1709 
C 1376 890 870 269 288 -109 
C 403 -205 550 -384 627 -499 
C 1216 -77 1715 512 2106 1299 
C 2394 941 2630 602 2784 314 
L 3168 666 
C 2982 998 2682 1395 2330 1798 
C 2624 2534 2835 3411 2944 4448 
L 2630 4538 
L 2547 4518 
L 448 4518 
L 448 4064 
L 2419 4064 
C 2323 3373 2170 2752 1965 2202 
C 1626 2554 1267 2899 922 3200 
L 582 2899 
z
M 4896 5376 
L 4896 3834 
L 3085 3834 
L 3085 3373 
L 4896 3373 
L 4896 141 
C 4896 26 4851 -6 4742 -13 
C 4634 -13 4275 -19 3872 0 
C 3936 -147 4006 -371 4032 -506 
C 4576 -506 4902 -493 5094 -410 
C 5293 -326 5370 -179 5370 141 
L 5370 3373 
L 6138 3373 
L 6138 3834 
L 5370 3834 
L 5370 5376 
L 4896 5376 
z
" transform="scale(0.015625)"/>
       <path id="NotoSansCJKjp-Regular-503c" d="M 3834 5376 
C 3814 5184 3782 4954 3750 4723 
L 2106 4723 
L 2106 4294 
L 3674 4294 
C 3635 4077 3597 3872 3552 3699 
L 2445 3699 
L 2445 90 
L 1830 90 
L 1830 -326 
L 6131 -326 
L 6131 90 
L 5562 90 
L 5562 3699 
L 3987 3699 
C 4038 3872 4090 4077 4134 4294 
L 5939 4294 
L 5939 4723 
L 4230 4723 
L 4346 5344 
L 3834 5376 
z
M 2880 90 
L 2880 621 
L 5114 621 
L 5114 90 
L 2880 90 
z
M 2880 2426 
L 5114 2426 
L 5114 1875 
L 2880 1875 
L 2880 2426 
z
M 2880 2784 
L 2880 3322 
L 5114 3322 
L 5114 2784 
L 2880 2784 
z
M 2880 1530 
L 5114 1530 
L 5114 973 
L 2880 973 
L 2880 1530 
z
M 1690 5370 
C 1350 4397 794 3443 205 2816 
C 288 2701 422 2451 474 2342 
C 659 2547 845 2784 1018 3040 
L 1018 -512 
L 1466 -512 
L 1466 3770 
C 1722 4230 1946 4730 2131 5229 
L 1690 5370 
z
" transform="scale(0.015625)"/>
      </defs>
      <use xlink:href="#NotoSansCJKjp-Regular-540e"/>
      <use xlink:href="#NotoSansCJKjp-Regular-9a8c" transform="translate(99.999985 0)"/>
      <use xlink:href="#NotoSansCJKjp-Regular-76f8" transform="translate(199.999969 0)"/>
      <use xlink:href="#NotoSansCJKjp-Regular-5173" transform="translate(299.999954 0)"/>
      <use xlink:href="#NotoSansCJKjp-Regular-7cfb" transform="translate(399.999939 0)"/>
      <use xlink:href="#NotoSansCJKjp-Regular-6570" transform="translate(499.999924 0)"/>
      <use xlink:href="#NotoSansCJKjp-Regular-7684" transform="translate(599.999908 0)"/>
      <use xlink:href="#NotoSansCJKjp-Regular-7edd" transform="translate(699.999893 0)"/>
      <use xlink:href="#NotoSansCJKjp-Regular-5bf9" transform="translate(799.999878 0)"/>
      <use xlink:href="#NotoSansCJKjp-Regular-503c" transform="translate(899.999863 0)"/>
     </g>
    </g>
   </g>
   <g id="line2d_41">
    <path d="M 57.276293 34.583708 
L 90.070307 44.472193 
L 133.421635 69.391175 
L 166.215649 99.847708 
L 199.009663 137.918375 
L 231.803677 175.989042 
L 307.94902 231.364557 
" clip-path="url(#paf50507c9d)" style="fill: none; stroke: #17658c; stroke-width: 1.5; stroke-linecap: square"/>
    <defs>
     <path id="mf92c54c1e9" d="M 0 3 
C 0.795609 3 1.55874 2.683901 2.12132 2.12132 
C 2.683901 1.55874 3 0.795609 3 0 
C 3 -0.795609 2.683901 -1.55874 2.12132 -2.12132 
C 1.55874 -2.683901 0.795609 -3 0 -3 
C -0.795609 -3 -1.55874 -2.683901 -2.12132 -2.12132 
C -2.683901 -1.55874 -3 -0.795609 -3 0 
C -3 0.795609 -2.683901 1.55874 -2.12132 2.12132 
C -1.55874 2.683901 -0.795609 3 0 3 
z
" style="stroke: #17658c"/>
    </defs>
    <g clip-path="url(#paf50507c9d)">
     <use xlink:href="#mf92c54c1e9" x="57.276293" y="34.583708" style="fill: #17658c; stroke: #17658c"/>
     <use xlink:href="#mf92c54c1e9" x="90.070307" y="44.472193" style="fill: #17658c; stroke: #17658c"/>
     <use xlink:href="#mf92c54c1e9" x="133.421635" y="69.391175" style="fill: #17658c; stroke: #17658c"/>
     <use xlink:href="#mf92c54c1e9" x="166.215649" y="99.847708" style="fill: #17658c; stroke: #17658c"/>
     <use xlink:href="#mf92c54c1e9" x="199.009663" y="137.918375" style="fill: #17658c; stroke: #17658c"/>
     <use xlink:href="#mf92c54c1e9" x="231.803677" y="175.989042" style="fill: #17658c; stroke: #17658c"/>
     <use xlink:href="#mf92c54c1e9" x="307.94902" y="231.364557" style="fill: #17658c; stroke: #17658c"/>
    </g>
   </g>
   <g id="patch_3">
    <path d="M 44.742656 252.130375 
L 44.742656 23.706375 
" style="fill: none; stroke: #000000; stroke-width: 0.8; stroke-linejoin: miter; stroke-linecap: square"/>
   </g>
   <g id="patch_4">
    <path d="M 320.482656 252.130375 
L 320.482656 23.706375 
" style="fill: none; stroke: #000000; stroke-width: 0.8; stroke-linejoin: miter; stroke-linecap: square"/>
   </g>
   <g id="patch_5">
    <path d="M 44.742656 252.130375 
L 320.482656 252.130375 
" style="fill: none; stroke: #000000; stroke-width: 0.8; stroke-linejoin: miter; stroke-linecap: square"/>
   </g>
   <g id="patch_6">
    <path d="M 44.742656 23.706375 
L 320.482656 23.706375 
" style="fill: none; stroke: #000000; stroke-width: 0.8; stroke-linejoin: miter; stroke-linecap: square"/>
   </g>
   <g id="text_12">
    <!-- 噪声小，总和约束更强 -->
    <g transform="translate(116.612656 17.706375) scale(0.132 -0.132)">
     <defs>
      <path id="NotoSansCJKjp-Regular-5c0f" d="M 2970 5286 
L 2970 154 
C 2970 26 2918 -13 2790 -19 
C 2656 -26 2195 -32 1728 -13 
C 1805 -147 1894 -378 1926 -512 
C 2528 -518 2925 -506 3162 -422 
C 3392 -346 3488 -198 3488 154 
L 3488 5286 
L 2970 5286 
z
M 4512 3654 
C 5062 2733 5581 1536 5728 774 
L 6246 986 
C 6080 1754 5536 2931 4973 3827 
L 4512 3654 
z
M 1293 3782 
C 1133 2925 774 1818 205 1139 
C 339 1082 550 966 659 883 
C 1242 1594 1619 2752 1830 3693 
L 1293 3782 
z
" transform="scale(0.015625)"/>
      <path id="NotoSansCJKjp-Regular-ff0c" d="M 1005 -685 
C 1677 -448 2112 77 2112 768 
C 2112 1216 1920 1504 1568 1504 
C 1306 1504 1082 1344 1082 1043 
C 1082 742 1299 589 1562 589 
L 1670 602 
C 1638 160 1357 -141 864 -346 
L 1005 -685 
z
" transform="scale(0.015625)"/>
      <path id="NotoSansCJKjp-Regular-603b" d="M 4858 1370 
C 5222 928 5600 333 5741 -64 
L 6131 179 
C 5990 582 5600 1152 5222 1581 
L 4858 1370 
z
M 2637 1722 
C 3059 1434 3546 979 3782 666 
L 4141 973 
C 3898 1274 3405 1709 2976 1990 
L 2637 1722 
z
M 1798 1542 
L 1798 218 
C 1798 -301 1997 -442 2758 -442 
C 2912 -442 4032 -442 4198 -442 
C 4787 -442 4947 -262 5018 474 
C 4877 499 4672 576 4563 646 
C 4525 83 4480 -6 4160 -6 
C 3910 -6 2970 -6 2784 -6 
C 2374 -6 2304 32 2304 224 
L 2304 1542 
L 1798 1542 
z
M 877 1440 
C 762 947 538 384 275 58 
L 717 -154 
C 1005 230 1216 832 1331 1357 
L 877 1440 
z
M 1696 3629 
L 4717 3629 
L 4717 2502 
L 1696 2502 
L 1696 3629 
z
M 1190 4083 
L 1190 2042 
L 5248 2042 
L 5248 4083 
L 4205 4083 
C 4429 4410 4666 4806 4870 5171 
L 4378 5370 
C 4211 4986 3930 4454 3680 4083 
L 2368 4083 
L 2746 4275 
C 2630 4576 2336 5018 2054 5350 
L 1645 5158 
C 1914 4832 2182 4384 2291 4083 
L 1190 4083 
z
" transform="scale(0.015625)"/>
      <path id="NotoSansCJKjp-Regular-548c" d="M 3398 4781 
L 3398 -224 
L 3866 -224 
L 3866 301 
L 5293 301 
L 5293 -179 
L 5779 -179 
L 5779 4781 
L 3398 4781 
z
M 3866 762 
L 3866 4320 
L 5293 4320 
L 5293 762 
L 3866 762 
z
M 2810 5318 
C 2246 5088 1235 4896 384 4781 
C 435 4672 499 4506 518 4397 
C 858 4435 1222 4486 1581 4550 
L 1581 3482 
L 320 3482 
L 320 3034 
L 1459 3034 
C 1165 2227 653 1350 166 858 
C 250 736 371 550 429 410 
C 845 851 1267 1587 1581 2342 
L 1581 -499 
L 2054 -499 
L 2054 2323 
C 2330 1958 2688 1472 2835 1229 
L 3130 1626 
C 2976 1824 2291 2630 2054 2874 
L 2054 3034 
L 3174 3034 
L 3174 3482 
L 2054 3482 
L 2054 4646 
C 2458 4730 2829 4826 3130 4941 
L 2810 5318 
z
" transform="scale(0.015625)"/>
      <path id="NotoSansCJKjp-Regular-7ea6" d="M 256 339 
L 333 -128 
C 986 6 1875 186 2733 358 
L 2701 781 
C 1798 608 864 435 256 339 
z
M 3187 2656 
C 3654 2240 4192 1651 4422 1254 
L 4781 1555 
C 4538 1958 3994 2522 3514 2925 
L 3187 2656 
z
M 390 2714 
C 486 2765 646 2797 1478 2893 
C 1184 2483 909 2157 787 2029 
C 582 1798 422 1638 282 1613 
C 339 1491 410 1274 435 1178 
C 582 1254 813 1306 2643 1613 
C 2624 1709 2618 1888 2624 2022 
L 1114 1798 
C 1638 2362 2163 3066 2611 3776 
L 2208 4019 
C 2080 3782 1926 3539 1773 3315 
L 896 3232 
C 1306 3776 1709 4474 2029 5165 
L 1574 5350 
C 1274 4582 774 3770 621 3558 
C 467 3341 352 3200 230 3168 
C 288 3046 365 2816 390 2714 
z
M 3622 5376 
C 3418 4506 3059 3635 2618 3078 
C 2726 3014 2931 2880 3021 2810 
C 3213 3072 3392 3392 3552 3750 
L 5434 3750 
C 5363 1235 5274 275 5082 64 
C 5011 -19 4941 -45 4819 -38 
C 4666 -38 4301 -38 3898 0 
C 3987 -134 4045 -326 4051 -461 
C 4410 -486 4781 -493 4992 -467 
C 5216 -448 5357 -390 5498 -211 
C 5741 96 5818 1062 5901 3955 
C 5901 4019 5907 4198 5907 4198 
L 3738 4198 
C 3866 4544 3987 4909 4083 5280 
L 3622 5376 
z
" transform="scale(0.015625)"/>
      <path id="NotoSansCJKjp-Regular-675f" d="M 928 3546 
L 928 1702 
L 2688 1702 
C 2093 1024 1139 410 256 102 
C 365 6 512 -179 589 -294 
C 1421 32 2310 640 2944 1338 
L 2944 -512 
L 3437 -512 
L 3437 1370 
C 4070 653 4979 32 5837 -307 
C 5914 -179 6067 13 6182 109 
C 5280 410 4307 1024 3712 1702 
L 5498 1702 
L 5498 3546 
L 3437 3546 
L 3437 4243 
L 5933 4243 
L 5933 4698 
L 3437 4698 
L 3437 5370 
L 2944 5370 
L 2944 4698 
L 486 4698 
L 486 4243 
L 2944 4243 
L 2944 3546 
L 928 3546 
z
M 1389 3117 
L 2944 3117 
L 2944 2131 
L 1389 2131 
L 1389 3117 
z
M 3437 3117 
L 5005 3117 
L 5005 2131 
L 3437 2131 
L 3437 3117 
z
" transform="scale(0.015625)"/>
      <path id="NotoSansCJKjp-Regular-66f4" d="M 1613 1523 
L 1203 1357 
C 1421 986 1690 691 2003 454 
C 1613 230 1062 45 301 -96 
C 403 -205 531 -410 589 -518 
C 1421 -339 2016 -102 2445 179 
C 3328 -288 4506 -435 5997 -493 
C 6022 -333 6112 -128 6202 -19 
C 4768 19 3661 115 2835 486 
C 3168 813 3341 1184 3418 1581 
L 5587 1581 
L 5587 4058 
L 3488 4058 
L 3488 4602 
L 5984 4602 
L 5984 5037 
L 416 5037 
L 416 4602 
L 2989 4602 
L 2989 4058 
L 998 4058 
L 998 1581 
L 2912 1581 
C 2835 1274 2688 986 2394 730 
C 2086 934 1824 1190 1613 1523 
z
M 1459 2630 
L 2989 2630 
L 2989 2374 
C 2989 2240 2989 2106 2976 1978 
L 1459 1978 
L 1459 2630 
z
M 3475 1978 
C 3482 2106 3488 2234 3488 2368 
L 3488 2630 
L 5107 2630 
L 5107 1978 
L 3475 1978 
z
M 1459 3654 
L 2989 3654 
L 2989 3014 
L 1459 3014 
L 1459 3654 
z
M 3488 3654 
L 5107 3654 
L 5107 3014 
L 3488 3014 
L 3488 3654 
z
" transform="scale(0.015625)"/>
      <path id="NotoSansCJKjp-Regular-5f3a" d="M 3309 4621 
L 5184 4621 
L 5184 3757 
L 3309 3757 
L 3309 4621 
z
M 2867 5024 
L 2867 3347 
L 4006 3347 
L 4006 2861 
L 2733 2861 
L 2733 1178 
L 4006 1178 
L 4006 205 
L 2445 115 
L 2515 -352 
C 3328 -294 4480 -211 5587 -122 
C 5664 -275 5728 -422 5773 -550 
L 6195 -352 
C 6061 32 5702 602 5370 1037 
L 4973 858 
C 5101 685 5235 493 5350 294 
L 4461 237 
L 4461 1178 
L 5805 1178 
L 5805 2861 
L 4461 2861 
L 4461 3347 
L 5638 3347 
L 5638 5024 
L 2867 5024 
z
M 3155 2458 
L 4006 2458 
L 4006 1581 
L 3155 1581 
L 3155 2458 
z
M 4461 2458 
L 5363 2458 
L 5363 1581 
L 4461 1581 
L 4461 2458 
z
M 531 3571 
C 480 2950 378 2118 288 1613 
L 730 1555 
L 768 1811 
L 1907 1811 
C 1830 595 1741 115 1619 -13 
C 1562 -77 1498 -83 1395 -83 
C 1286 -83 1011 -83 717 -58 
C 787 -179 838 -365 851 -499 
C 1139 -512 1440 -518 1594 -506 
C 1779 -486 1901 -442 2010 -314 
C 2202 -102 2291 474 2387 2035 
C 2394 2106 2400 2246 2400 2246 
L 826 2246 
L 928 3130 
L 2330 3130 
L 2330 5043 
L 371 5043 
L 371 4602 
L 1882 4602 
L 1882 3571 
L 531 3571 
z
" transform="scale(0.015625)"/>
     </defs>
     <use xlink:href="#NotoSansCJKjp-Regular-566a"/>
     <use xlink:href="#NotoSansCJKjp-Regular-58f0" transform="translate(99.999985 0)"/>
     <use xlink:href="#NotoSansCJKjp-Regular-5c0f" transform="translate(199.999969 0)"/>
     <use xlink:href="#NotoSansCJKjp-Regular-ff0c" transform="translate(299.999954 0)"/>
     <use xlink:href="#NotoSansCJKjp-Regular-603b" transform="translate(399.999939 0)"/>
     <use xlink:href="#NotoSansCJKjp-Regular-548c" transform="translate(499.999924 0)"/>
     <use xlink:href="#NotoSansCJKjp-Regular-7ea6" transform="translate(599.999908 0)"/>
     <use xlink:href="#NotoSansCJKjp-Regular-675f" transform="translate(699.999893 0)"/>
     <use xlink:href="#NotoSansCJKjp-Regular-66f4" transform="translate(799.999878 0)"/>
     <use xlink:href="#NotoSansCJKjp-Regular-5f3a" transform="translate(899.999863 0)"/>
    </g>
   </g>
  </g>
  <g id="axes_2">
   <g id="patch_7">
    <path d="M 370.362656 252.130375 
L 646.102656 252.130375 
L 646.102656 23.706375 
L 370.362656 23.706375 
z
" style="fill: #ffffff"/>
   </g>
   <g id="matplotlib.axis_3">
    <g id="xtick_26">
     <g id="line2d_42">
      <path d="M 415.690307 252.130375 
L 415.690307 23.706375 
" clip-path="url(#p8fc6c49356)" style="fill: none; stroke: #b0b0b0; stroke-opacity: 0.2; stroke-width: 0.8; stroke-linecap: square"/>
     </g>
     <g id="line2d_43">
      <g>
       <use xlink:href="#mecc43aa400" x="415.690307" y="252.130375" style="stroke: #000000; stroke-width: 0.8"/>
      </g>
     </g>
     <g id="text_13">
      <!-- $\mathdefault{10^{-1}}$ -->
      <g transform="translate(405.075307 267.885688) scale(0.11 -0.11)">
       <use xlink:href="#NotoSansCJKjp-Regular-31" transform="translate(0 0.684375)"/>
       <use xlink:href="#NotoSansCJKjp-Regular-30" transform="translate(55.499985 0.684375)"/>
       <use xlink:href="#NotoSansCJKjp-Regular-2212" transform="translate(111.950165 38.692188) scale(0.7)"/>
       <use xlink:href="#NotoSansCJKjp-Regular-31" transform="translate(150.800154 38.692188) scale(0.7)"/>
      </g>
     </g>
    </g>
    <g id="xtick_27">
     <g id="line2d_44">
      <path d="M 524.629663 252.130375 
L 524.629663 23.706375 
" clip-path="url(#p8fc6c49356)" style="fill: none; stroke: #b0b0b0; stroke-opacity: 0.2; stroke-width: 0.8; stroke-linecap: square"/>
     </g>
     <g id="line2d_45">
      <g>
       <use xlink:href="#mecc43aa400" x="524.629663" y="252.130375" style="stroke: #000000; stroke-width: 0.8"/>
      </g>
     </g>
     <g id="text_14">
      <!-- $\mathdefault{10^{0}}$ -->
      <g transform="translate(516.159663 267.885688) scale(0.11 -0.11)">
       <use xlink:href="#NotoSansCJKjp-Regular-31" transform="translate(0 0.776563)"/>
       <use xlink:href="#NotoSansCJKjp-Regular-30" transform="translate(55.499985 0.776563)"/>
       <use xlink:href="#NotoSansCJKjp-Regular-30" transform="translate(111.950165 38.784375) scale(0.7)"/>
      </g>
     </g>
    </g>
    <g id="xtick_28">
     <g id="line2d_46">
      <path d="M 633.56902 252.130375 
L 633.56902 23.706375 
" clip-path="url(#p8fc6c49356)" style="fill: none; stroke: #b0b0b0; stroke-opacity: 0.2; stroke-width: 0.8; stroke-linecap: square"/>
     </g>
     <g id="line2d_47">
      <g>
       <use xlink:href="#mecc43aa400" x="633.56902" y="252.130375" style="stroke: #000000; stroke-width: 0.8"/>
      </g>
     </g>
     <g id="text_15">
      <!-- $\mathdefault{10^{1}}$ -->
      <g transform="translate(625.09902 267.885688) scale(0.11 -0.11)">
       <use xlink:href="#NotoSansCJKjp-Regular-31" transform="translate(0 0.684375)"/>
       <use xlink:href="#NotoSansCJKjp-Regular-30" transform="translate(55.499985 0.684375)"/>
       <use xlink:href="#NotoSansCJKjp-Regular-31" transform="translate(111.950165 38.692188) scale(0.7)"/>
      </g>
     </g>
    </g>
    <g id="xtick_29">
     <g id="line2d_48">
      <g>
       <use xlink:href="#ma51ca44d17" x="372.338978" y="252.130375" style="stroke: #000000; stroke-width: 0.6"/>
      </g>
     </g>
    </g>
    <g id="xtick_30">
     <g id="line2d_49">
      <g>
       <use xlink:href="#ma51ca44d17" x="382.896293" y="252.130375" style="stroke: #000000; stroke-width: 0.6"/>
      </g>
     </g>
    </g>
    <g id="xtick_31">
     <g id="line2d_50">
      <g>
       <use xlink:href="#ma51ca44d17" x="391.522247" y="252.130375" style="stroke: #000000; stroke-width: 0.6"/>
      </g>
     </g>
    </g>
    <g id="xtick_32">
     <g id="line2d_51">
      <g>
       <use xlink:href="#ma51ca44d17" x="398.815387" y="252.130375" style="stroke: #000000; stroke-width: 0.6"/>
      </g>
     </g>
    </g>
    <g id="xtick_33">
     <g id="line2d_52">
      <g>
       <use xlink:href="#ma51ca44d17" x="405.132992" y="252.130375" style="stroke: #000000; stroke-width: 0.6"/>
      </g>
     </g>
    </g>
    <g id="xtick_34">
     <g id="line2d_53">
      <g>
       <use xlink:href="#ma51ca44d17" x="410.705515" y="252.130375" style="stroke: #000000; stroke-width: 0.6"/>
      </g>
     </g>
    </g>
    <g id="xtick_35">
     <g id="line2d_54">
      <g>
       <use xlink:href="#ma51ca44d17" x="448.484321" y="252.130375" style="stroke: #000000; stroke-width: 0.6"/>
      </g>
     </g>
    </g>
    <g id="xtick_36">
     <g id="line2d_55">
      <g>
       <use xlink:href="#ma51ca44d17" x="467.667589" y="252.130375" style="stroke: #000000; stroke-width: 0.6"/>
      </g>
     </g>
    </g>
    <g id="xtick_37">
     <g id="line2d_56">
      <g>
       <use xlink:href="#ma51ca44d17" x="481.278335" y="252.130375" style="stroke: #000000; stroke-width: 0.6"/>
      </g>
     </g>
    </g>
    <g id="xtick_38">
     <g id="line2d_57">
      <g>
       <use xlink:href="#ma51ca44d17" x="491.835649" y="252.130375" style="stroke: #000000; stroke-width: 0.6"/>
      </g>
     </g>
    </g>
    <g id="xtick_39">
     <g id="line2d_58">
      <g>
       <use xlink:href="#ma51ca44d17" x="500.461603" y="252.130375" style="stroke: #000000; stroke-width: 0.6"/>
      </g>
     </g>
    </g>
    <g id="xtick_40">
     <g id="line2d_59">
      <g>
       <use xlink:href="#ma51ca44d17" x="507.754743" y="252.130375" style="stroke: #000000; stroke-width: 0.6"/>
      </g>
     </g>
    </g>
    <g id="xtick_41">
     <g id="line2d_60">
      <g>
       <use xlink:href="#ma51ca44d17" x="514.072349" y="252.130375" style="stroke: #000000; stroke-width: 0.6"/>
      </g>
     </g>
    </g>
    <g id="xtick_42">
     <g id="line2d_61">
      <g>
       <use xlink:href="#ma51ca44d17" x="519.644872" y="252.130375" style="stroke: #000000; stroke-width: 0.6"/>
      </g>
     </g>
    </g>
    <g id="xtick_43">
     <g id="line2d_62">
      <g>
       <use xlink:href="#ma51ca44d17" x="557.423677" y="252.130375" style="stroke: #000000; stroke-width: 0.6"/>
      </g>
     </g>
    </g>
    <g id="xtick_44">
     <g id="line2d_63">
      <g>
       <use xlink:href="#ma51ca44d17" x="576.606946" y="252.130375" style="stroke: #000000; stroke-width: 0.6"/>
      </g>
     </g>
    </g>
    <g id="xtick_45">
     <g id="line2d_64">
      <g>
       <use xlink:href="#ma51ca44d17" x="590.217691" y="252.130375" style="stroke: #000000; stroke-width: 0.6"/>
      </g>
     </g>
    </g>
    <g id="xtick_46">
     <g id="line2d_65">
      <g>
       <use xlink:href="#ma51ca44d17" x="600.775006" y="252.130375" style="stroke: #000000; stroke-width: 0.6"/>
      </g>
     </g>
    </g>
    <g id="xtick_47">
     <g id="line2d_66">
      <g>
       <use xlink:href="#ma51ca44d17" x="609.40096" y="252.130375" style="stroke: #000000; stroke-width: 0.6"/>
      </g>
     </g>
    </g>
    <g id="xtick_48">
     <g id="line2d_67">
      <g>
       <use xlink:href="#ma51ca44d17" x="616.6941" y="252.130375" style="stroke: #000000; stroke-width: 0.6"/>
      </g>
     </g>
    </g>
    <g id="xtick_49">
     <g id="line2d_68">
      <g>
       <use xlink:href="#ma51ca44d17" x="623.011705" y="252.130375" style="stroke: #000000; stroke-width: 0.6"/>
      </g>
     </g>
    </g>
    <g id="xtick_50">
     <g id="line2d_69">
      <g>
       <use xlink:href="#ma51ca44d17" x="628.584228" y="252.130375" style="stroke: #000000; stroke-width: 0.6"/>
      </g>
     </g>
    </g>
    <g id="text_16">
     <!-- 观测噪声方差 τ² -->
     <g transform="translate(468.912813 283.160687) scale(0.11 -0.11)">
      <use xlink:href="#NotoSansCJKjp-Regular-89c2"/>
      <use xlink:href="#NotoSansCJKjp-Regular-6d4b" transform="translate(99.999985 0)"/>
      <use xlink:href="#NotoSansCJKjp-Regular-566a" transform="translate(199.999969 0)"/>
      <use xlink:href="#NotoSansCJKjp-Regular-58f0" transform="translate(299.999954 0)"/>
      <use xlink:href="#NotoSansCJKjp-Regular-65b9" transform="translate(399.999939 0)"/>
      <use xlink:href="#NotoSansCJKjp-Regular-5dee" transform="translate(499.999924 0)"/>
      <use xlink:href="#NotoSansCJKjp-Regular-20" transform="translate(599.999908 0)"/>
      <use xlink:href="#NotoSansCJKjp-Regular-3c4" transform="translate(622.399902 0)"/>
      <use xlink:href="#NotoSansCJKjp-Regular-b2" transform="translate(673.799896 0)"/>
     </g>
    </g>
   </g>
   <g id="matplotlib.axis_4">
    <g id="ytick_7">
     <g id="line2d_70">
      <path d="M 370.362656 252.130375 
L 646.102656 252.130375 
" clip-path="url(#p8fc6c49356)" style="fill: none; stroke: #b0b0b0; stroke-opacity: 0.2; stroke-width: 0.8; stroke-linecap: square"/>
     </g>
     <g id="line2d_71">
      <g>
       <use xlink:href="#m6862fdaf33" x="370.362656" y="252.130375" style="stroke: #000000; stroke-width: 0.8"/>
      </g>
     </g>
     <g id="text_17">
      <!-- 0.0 -->
      <g transform="translate(348.095 256.508031) scale(0.11 -0.11)">
       <use xlink:href="#NotoSansCJKjp-Regular-30"/>
       <use xlink:href="#NotoSansCJKjp-Regular-2e" transform="translate(55.499985 0)"/>
       <use xlink:href="#NotoSansCJKjp-Regular-30" transform="translate(83.299973 0)"/>
      </g>
     </g>
    </g>
    <g id="ytick_8">
     <g id="line2d_72">
      <path d="M 370.362656 208.621042 
L 646.102656 208.621042 
" clip-path="url(#p8fc6c49356)" style="fill: none; stroke: #b0b0b0; stroke-opacity: 0.2; stroke-width: 0.8; stroke-linecap: square"/>
     </g>
     <g id="line2d_73">
      <g>
       <use xlink:href="#m6862fdaf33" x="370.362656" y="208.621042" style="stroke: #000000; stroke-width: 0.8"/>
      </g>
     </g>
     <g id="text_18">
      <!-- 0.2 -->
      <g transform="translate(348.095 212.998698) scale(0.11 -0.11)">
       <use xlink:href="#NotoSansCJKjp-Regular-30"/>
       <use xlink:href="#NotoSansCJKjp-Regular-2e" transform="translate(55.499985 0)"/>
       <use xlink:href="#NotoSansCJKjp-Regular-32" transform="translate(83.299973 0)"/>
      </g>
     </g>
    </g>
    <g id="ytick_9">
     <g id="line2d_74">
      <path d="M 370.362656 165.111708 
L 646.102656 165.111708 
" clip-path="url(#p8fc6c49356)" style="fill: none; stroke: #b0b0b0; stroke-opacity: 0.2; stroke-width: 0.8; stroke-linecap: square"/>
     </g>
     <g id="line2d_75">
      <g>
       <use xlink:href="#m6862fdaf33" x="370.362656" y="165.111708" style="stroke: #000000; stroke-width: 0.8"/>
      </g>
     </g>
     <g id="text_19">
      <!-- 0.4 -->
      <g transform="translate(348.095 169.489365) scale(0.11 -0.11)">
       <use xlink:href="#NotoSansCJKjp-Regular-30"/>
       <use xlink:href="#NotoSansCJKjp-Regular-2e" transform="translate(55.499985 0)"/>
       <use xlink:href="#NotoSansCJKjp-Regular-34" transform="translate(83.299973 0)"/>
      </g>
     </g>
    </g>
    <g id="ytick_10">
     <g id="line2d_76">
      <path d="M 370.362656 121.602375 
L 646.102656 121.602375 
" clip-path="url(#p8fc6c49356)" style="fill: none; stroke: #b0b0b0; stroke-opacity: 0.2; stroke-width: 0.8; stroke-linecap: square"/>
     </g>
     <g id="line2d_77">
      <g>
       <use xlink:href="#m6862fdaf33" x="370.362656" y="121.602375" style="stroke: #000000; stroke-width: 0.8"/>
      </g>
     </g>
     <g id="text_20">
      <!-- 0.6 -->
      <g transform="translate(348.095 125.980031) scale(0.11 -0.11)">
       <use xlink:href="#NotoSansCJKjp-Regular-30"/>
       <use xlink:href="#NotoSansCJKjp-Regular-2e" transform="translate(55.499985 0)"/>
       <use xlink:href="#NotoSansCJKjp-Regular-36" transform="translate(83.299973 0)"/>
      </g>
     </g>
    </g>
    <g id="ytick_11">
     <g id="line2d_78">
      <path d="M 370.362656 78.093042 
L 646.102656 78.093042 
" clip-path="url(#p8fc6c49356)" style="fill: none; stroke: #b0b0b0; stroke-opacity: 0.2; stroke-width: 0.8; stroke-linecap: square"/>
     </g>
     <g id="line2d_79">
      <g>
       <use xlink:href="#m6862fdaf33" x="370.362656" y="78.093042" style="stroke: #000000; stroke-width: 0.8"/>
      </g>
     </g>
     <g id="text_21">
      <!-- 0.8 -->
      <g transform="translate(348.095 82.470698) scale(0.11 -0.11)">
       <use xlink:href="#NotoSansCJKjp-Regular-30"/>
       <use xlink:href="#NotoSansCJKjp-Regular-2e" transform="translate(55.499985 0)"/>
       <use xlink:href="#NotoSansCJKjp-Regular-38" transform="translate(83.299973 0)"/>
      </g>
     </g>
    </g>
    <g id="ytick_12">
     <g id="line2d_80">
      <path d="M 370.362656 34.583708 
L 646.102656 34.583708 
" clip-path="url(#p8fc6c49356)" style="fill: none; stroke: #b0b0b0; stroke-opacity: 0.2; stroke-width: 0.8; stroke-linecap: square"/>
     </g>
     <g id="line2d_81">
      <g>
       <use xlink:href="#m6862fdaf33" x="370.362656" y="34.583708" style="stroke: #000000; stroke-width: 0.8"/>
      </g>
     </g>
     <g id="text_22">
      <!-- 1.0 -->
      <g transform="translate(348.095 38.961365) scale(0.11 -0.11)">
       <use xlink:href="#NotoSansCJKjp-Regular-31"/>
       <use xlink:href="#NotoSansCJKjp-Regular-2e" transform="translate(55.499985 0)"/>
       <use xlink:href="#NotoSansCJKjp-Regular-30" transform="translate(83.299973 0)"/>
      </g>
     </g>
    </g>
    <g id="text_23">
     <!-- q边缘方差 / p边缘方差 -->
     <g transform="translate(341.575313 193.359234) rotate(-90) scale(0.11 -0.11)">
      <defs>
       <path id="NotoSansCJKjp-Regular-71" d="M 2790 -1466 
L 3379 -1466 
L 3379 3475 
L 2912 3475 
L 2854 3149 
L 2842 3149 
C 2534 3418 2253 3565 1843 3565 
C 1050 3565 339 2861 339 1734 
C 339 576 902 -83 1773 -83 
C 2176 -83 2541 128 2822 403 
L 2790 -230 
L 2790 -1466 
z
M 1901 410 
C 1293 410 941 902 941 1741 
C 941 2534 1389 3072 1946 3072 
C 2234 3072 2502 2970 2790 2707 
L 2790 883 
C 2502 563 2221 410 1901 410 
z
" transform="scale(0.015625)"/>
       <path id="NotoSansCJKjp-Regular-8fb9" d="M 525 5018 
C 877 4685 1306 4218 1510 3917 
L 1901 4224 
C 1690 4512 1248 4960 896 5280 
L 525 5018 
z
M 3539 5280 
C 3533 4922 3526 4570 3507 4230 
L 2189 4230 
L 2189 3770 
L 3475 3770 
C 3366 2541 3046 1517 2003 896 
C 2131 813 2278 659 2349 544 
C 3482 1261 3840 2400 3974 3770 
L 5395 3770 
C 5312 1971 5222 1267 5062 1094 
C 4998 1024 4928 1011 4806 1018 
C 4659 1018 4301 1018 3923 1050 
C 4013 909 4077 704 4090 557 
C 4442 544 4806 531 4998 550 
C 5216 570 5357 621 5491 787 
C 5709 1050 5798 1824 5888 4000 
C 5894 4064 5894 4230 5894 4230 
L 4006 4230 
C 4026 4570 4038 4922 4045 5280 
L 3539 5280 
z
M 1587 3206 
L 269 3206 
L 269 2733 
L 1107 2733 
L 1107 742 
C 826 627 499 326 154 -58 
L 512 -525 
C 826 -77 1126 333 1331 333 
C 1472 333 1690 102 1958 -77 
C 2419 -371 2963 -442 3795 -442 
C 4442 -442 5626 -403 6080 -371 
C 6093 -224 6170 32 6234 166 
C 5587 96 4608 38 3814 38 
C 3066 38 2502 83 2080 358 
C 1856 499 1709 627 1587 704 
L 1587 3206 
z
" transform="scale(0.015625)"/>
       <path id="NotoSansCJKjp-Regular-7f18" d="M 294 339 
L 410 -102 
C 960 122 1677 416 2355 704 
L 2266 1088 
C 1536 800 794 512 294 339 
z
M 3187 5382 
C 3078 4870 2918 4192 2784 3763 
L 4787 3763 
L 4698 3341 
L 2336 3341 
L 2336 2950 
L 3814 2950 
C 3379 2650 2803 2394 2272 2221 
C 2355 2150 2483 1971 2534 1894 
C 2874 2022 3245 2195 3584 2394 
C 3712 2278 3814 2163 3910 2035 
C 3533 1741 2899 1427 2406 1280 
C 2496 1197 2598 1043 2656 941 
C 3123 1120 3693 1434 4096 1741 
C 4160 1606 4218 1472 4256 1338 
C 3814 858 2976 352 2285 134 
C 2387 45 2490 -96 2547 -205 
C 3155 32 3859 461 4346 909 
C 4397 486 4314 134 4173 6 
C 4083 -96 3974 -109 3840 -109 
C 3725 -109 3584 -102 3405 -83 
C 3482 -211 3507 -384 3514 -493 
C 3667 -499 3814 -506 3930 -506 
C 4160 -499 4314 -467 4467 -314 
C 4800 -45 4922 794 4608 1594 
L 4992 1773 
C 5133 954 5414 211 5856 -192 
C 5933 -77 6067 83 6163 160 
C 5734 493 5459 1197 5325 1946 
C 5568 2074 5798 2214 6003 2349 
L 5683 2637 
C 5370 2413 4870 2125 4448 1926 
C 4314 2163 4134 2387 3910 2586 
C 4083 2701 4243 2822 4390 2950 
L 6138 2950 
L 6138 3341 
L 5126 3341 
C 5242 3859 5363 4461 5434 4941 
L 5120 4992 
L 5050 4966 
L 3546 4966 
L 3629 5331 
L 3187 5382 
z
M 4947 4614 
L 4858 4115 
L 3322 4115 
L 3456 4614 
L 4947 4614 
z
M 410 2707 
C 499 2752 653 2790 1408 2886 
C 1139 2464 890 2118 781 1990 
C 589 1754 448 1594 320 1568 
C 365 1459 435 1248 454 1165 
C 576 1248 774 1325 2227 1715 
C 2214 1811 2202 1990 2202 2112 
L 1139 1850 
C 1587 2419 2022 3098 2387 3770 
L 2022 3987 
C 1914 3757 1792 3526 1664 3302 
L 890 3226 
C 1286 3776 1664 4474 1965 5158 
L 1549 5325 
C 1267 4557 781 3731 640 3514 
C 499 3296 378 3149 262 3123 
C 320 3008 390 2797 410 2707 
z
" transform="scale(0.015625)"/>
       <path id="NotoSansCJKjp-Regular-2f" d="M 70 -1146 
L 499 -1146 
L 2413 5082 
L 1990 5082 
L 70 -1146 
z
" transform="scale(0.015625)"/>
       <path id="NotoSansCJKjp-Regular-70" d="M 589 -1466 
L 1178 -1466 
L 1178 -288 
L 1158 320 
C 1472 58 1805 -83 2118 -83 
C 2912 -83 3629 602 3629 1792 
C 3629 2867 3142 3565 2246 3565 
C 1843 3565 1453 3334 1139 3072 
L 1126 3072 
L 1069 3475 
L 589 3475 
L 589 -1466 
z
M 2022 410 
C 1792 410 1485 499 1178 768 
L 1178 2598 
C 1510 2906 1811 3072 2099 3072 
C 2765 3072 3021 2560 3021 1786 
C 3021 928 2598 410 2022 410 
z
" transform="scale(0.015625)"/>
      </defs>
      <use xlink:href="#NotoSansCJKjp-Regular-71"/>
      <use xlink:href="#NotoSansCJKjp-Regular-8fb9" transform="translate(61.999985 0)"/>
      <use xlink:href="#NotoSansCJKjp-Regular-7f18" transform="translate(161.999969 0)"/>
      <use xlink:href="#NotoSansCJKjp-Regular-65b9" transform="translate(261.999954 0)"/>
      <use xlink:href="#NotoSansCJKjp-Regular-5dee" transform="translate(361.999939 0)"/>
      <use xlink:href="#NotoSansCJKjp-Regular-20" transform="translate(461.999924 0)"/>
      <use xlink:href="#NotoSansCJKjp-Regular-2f" transform="translate(484.399918 0)"/>
      <use xlink:href="#NotoSansCJKjp-Regular-20" transform="translate(523.599915 0)"/>
      <use xlink:href="#NotoSansCJKjp-Regular-70" transform="translate(545.999908 0)"/>
      <use xlink:href="#NotoSansCJKjp-Regular-8fb9" transform="translate(607.999893 0)"/>
      <use xlink:href="#NotoSansCJKjp-Regular-7f18" transform="translate(707.999878 0)"/>
      <use xlink:href="#NotoSansCJKjp-Regular-65b9" transform="translate(807.999863 0)"/>
      <use xlink:href="#NotoSansCJKjp-Regular-5dee" transform="translate(907.999847 0)"/>
     </g>
    </g>
   </g>
   <g id="line2d_82">
    <path d="M 382.896293 231.904948 
L 415.690307 214.374342 
L 459.041635 173.813575 
L 491.835649 131.271116 
L 524.629663 88.970375 
L 557.423677 58.75556 
L 633.56902 36.381615 
" clip-path="url(#p8fc6c49356)" style="fill: none; stroke: #d97920; stroke-width: 1.5; stroke-linecap: square"/>
    <defs>
     <path id="m9ab9fd1b45" d="M 0 3 
C 0.795609 3 1.55874 2.683901 2.12132 2.12132 
C 2.683901 1.55874 3 0.795609 3 0 
C 3 -0.795609 2.683901 -1.55874 2.12132 -2.12132 
C 1.55874 -2.683901 0.795609 -3 0 -3 
C -0.795609 -3 -1.55874 -2.683901 -2.12132 -2.12132 
C -2.683901 -1.55874 -3 -0.795609 -3 0 
C -3 0.795609 -2.683901 1.55874 -2.12132 2.12132 
C -1.55874 2.683901 -0.795609 3 0 3 
z
" style="stroke: #d97920"/>
    </defs>
    <g clip-path="url(#p8fc6c49356)">
     <use xlink:href="#m9ab9fd1b45" x="382.896293" y="231.904948" style="fill: #d97920; stroke: #d97920"/>
     <use xlink:href="#m9ab9fd1b45" x="415.690307" y="214.374342" style="fill: #d97920; stroke: #d97920"/>
     <use xlink:href="#m9ab9fd1b45" x="459.041635" y="173.813575" style="fill: #d97920; stroke: #d97920"/>
     <use xlink:href="#m9ab9fd1b45" x="491.835649" y="131.271116" style="fill: #d97920; stroke: #d97920"/>
     <use xlink:href="#m9ab9fd1b45" x="524.629663" y="88.970375" style="fill: #d97920; stroke: #d97920"/>
     <use xlink:href="#m9ab9fd1b45" x="557.423677" y="58.75556" style="fill: #d97920; stroke: #d97920"/>
     <use xlink:href="#m9ab9fd1b45" x="633.56902" y="36.381615" style="fill: #d97920; stroke: #d97920"/>
    </g>
   </g>
   <g id="patch_8">
    <path d="M 370.362656 252.130375 
L 370.362656 23.706375 
" style="fill: none; stroke: #000000; stroke-width: 0.8; stroke-linejoin: miter; stroke-linecap: square"/>
   </g>
   <g id="patch_9">
    <path d="M 646.102656 252.130375 
L 646.102656 23.706375 
" style="fill: none; stroke: #000000; stroke-width: 0.8; stroke-linejoin: miter; stroke-linecap: square"/>
   </g>
   <g id="patch_10">
    <path d="M 370.362656 252.130375 
L 646.102656 252.130375 
" style="fill: none; stroke: #000000; stroke-width: 0.8; stroke-linejoin: miter; stroke-linecap: square"/>
   </g>
   <g id="patch_11">
    <path d="M 370.362656 23.706375 
L 646.102656 23.706375 
" style="fill: none; stroke: #000000; stroke-width: 0.8; stroke-linejoin: miter; stroke-linecap: square"/>
   </g>
   <g id="text_24">
    <!-- 相关强，原坐标方差低估更重 -->
    <g transform="translate(422.432656 17.706375) scale(0.132 -0.132)">
     <defs>
      <path id="NotoSansCJKjp-Regular-539f" d="M 2362 2624 
L 5024 2624 
L 5024 2029 
L 2362 2029 
L 2362 2624 
z
M 2362 3571 
L 5024 3571 
L 5024 2989 
L 2362 2989 
L 2362 3571 
z
M 4474 1107 
C 4954 723 5510 166 5754 -211 
L 6150 51 
C 5888 435 5325 966 4838 1338 
L 4474 1107 
z
M 2374 1318 
C 2080 838 1606 352 1126 45 
C 1242 -26 1434 -160 1523 -237 
C 1990 109 2496 646 2835 1184 
L 2374 1318 
z
M 1888 3955 
L 1888 1645 
L 3450 1645 
L 3450 13 
C 3450 -64 3424 -90 3328 -96 
C 3232 -96 2899 -96 2522 -90 
C 2586 -211 2650 -390 2669 -512 
C 3168 -512 3482 -512 3674 -442 
C 3866 -371 3917 -243 3917 6 
L 3917 1645 
L 5510 1645 
L 5510 3955 
L 3750 3955 
C 3814 4147 3885 4365 3949 4576 
L 6035 4576 
L 6035 5024 
L 838 5024 
L 838 3168 
C 838 2163 787 749 224 -256 
C 339 -301 550 -422 640 -499 
C 1229 550 1312 2106 1312 3168 
L 1312 4576 
L 3386 4576 
C 3347 4390 3296 4154 3238 3955 
L 1888 3955 
z
" transform="scale(0.015625)"/>
      <path id="NotoSansCJKjp-Regular-5750" d="M 4698 5062 
C 4499 4070 4077 3232 3430 2714 
L 3430 5299 
L 2944 5299 
L 2944 1882 
L 800 1882 
L 800 1421 
L 2944 1421 
L 2944 192 
L 339 192 
L 339 -262 
L 6080 -262 
L 6080 192 
L 3430 192 
L 3430 1421 
L 5638 1421 
L 5638 1882 
L 3430 1882 
L 3430 2643 
C 3539 2560 3693 2413 3763 2336 
C 4109 2630 4397 3008 4634 3456 
C 5050 3040 5498 2547 5728 2221 
L 6067 2566 
C 5805 2912 5274 3450 4832 3872 
C 4973 4211 5088 4582 5171 4979 
L 4698 5062 
z
M 1562 5082 
C 1344 4000 915 3091 237 2528 
C 346 2451 538 2285 614 2189 
C 992 2534 1306 2982 1555 3507 
C 1888 3162 2246 2765 2432 2502 
L 2765 2848 
C 2547 3136 2106 3584 1741 3942 
C 1862 4269 1965 4627 2042 5005 
L 1562 5082 
z
" transform="scale(0.015625)"/>
      <path id="NotoSansCJKjp-Regular-6807" d="M 2982 4890 
L 2982 4435 
L 5773 4435 
L 5773 4890 
L 2982 4890 
z
M 4986 2080 
C 5286 1440 5587 608 5683 102 
L 6125 262 
C 6016 768 5709 1581 5395 2208 
L 4986 2080 
z
M 3142 2189 
C 2976 1510 2688 826 2330 365 
C 2438 314 2630 179 2720 115 
C 3066 602 3386 1350 3584 2093 
L 3142 2189 
z
M 2701 3360 
L 2701 2906 
L 4070 2906 
L 4070 115 
C 4070 32 4045 6 3949 0 
C 3866 0 3565 -6 3232 6 
C 3296 -141 3366 -346 3386 -486 
C 3834 -486 4128 -474 4314 -397 
C 4499 -314 4557 -166 4557 109 
L 4557 2906 
L 6118 2906 
L 6118 3360 
L 2701 3360 
z
M 1293 5376 
L 1293 4019 
L 314 4019 
L 314 3571 
L 1190 3571 
C 979 2778 563 1856 154 1376 
C 243 1254 371 1056 422 928 
C 742 1338 1056 2010 1293 2701 
L 1293 -506 
L 1773 -506 
L 1773 2842 
C 1990 2528 2246 2131 2355 1926 
L 2637 2304 
C 2509 2483 1958 3187 1773 3398 
L 1773 3571 
L 2611 3571 
L 2611 4019 
L 1773 4019 
L 1773 5376 
L 1293 5376 
z
" transform="scale(0.015625)"/>
      <path id="NotoSansCJKjp-Regular-4f4e" d="M 2093 83 
L 2093 -346 
L 4819 -346 
L 4819 83 
L 2093 83 
z
M 1901 902 
L 2010 448 
C 2650 563 3501 730 4307 883 
L 4282 1312 
C 3776 1216 3264 1126 2803 1043 
L 2803 2694 
L 4211 2694 
C 4429 992 4896 -262 5619 -262 
C 6029 -262 6195 -26 6259 845 
C 6144 890 5978 992 5875 1094 
C 5850 467 5792 205 5658 205 
C 5267 205 4877 1222 4685 2694 
L 6138 2694 
L 6138 3136 
L 4634 3136 
C 4595 3565 4570 4019 4563 4493 
C 5037 4582 5472 4685 5837 4794 
L 5466 5165 
C 4819 4941 3686 4742 2669 4621 
L 2336 4730 
L 2336 966 
L 1901 902 
z
M 2803 4230 
C 3219 4282 3661 4339 4090 4410 
C 4102 3974 4128 3546 4166 3136 
L 2803 3136 
L 2803 4230 
z
M 1690 5350 
C 1331 4378 736 3418 102 2797 
C 192 2688 326 2438 371 2323 
C 595 2554 813 2822 1024 3117 
L 1024 -499 
L 1485 -499 
L 1485 3840 
C 1734 4282 1965 4749 2144 5216 
L 1690 5350 
z
" transform="scale(0.015625)"/>
      <path id="NotoSansCJKjp-Regular-4f30" d="M 1702 5350 
C 1344 4378 749 3418 115 2797 
C 205 2688 339 2438 390 2323 
C 608 2547 819 2810 1024 3091 
L 1024 -499 
L 1485 -499 
L 1485 3808 
C 1747 4256 1978 4736 2163 5216 
L 1702 5350 
z
M 2074 3974 
L 2074 3507 
L 3827 3507 
L 3827 2195 
L 2445 2195 
L 2445 -512 
L 2918 -512 
L 2918 -237 
L 5267 -237 
L 5267 -486 
L 5754 -486 
L 5754 2195 
L 4320 2195 
L 4320 3507 
L 6144 3507 
L 6144 3974 
L 4320 3974 
L 4320 5376 
L 3827 5376 
L 3827 3974 
L 2074 3974 
z
M 2918 224 
L 2918 1741 
L 5267 1741 
L 5267 224 
L 2918 224 
z
" transform="scale(0.015625)"/>
      <path id="NotoSansCJKjp-Regular-91cd" d="M 1018 3456 
L 1018 1466 
L 2938 1466 
L 2938 1024 
L 813 1024 
L 813 640 
L 2938 640 
L 2938 83 
L 333 83 
L 333 -307 
L 6074 -307 
L 6074 83 
L 3418 83 
L 3418 640 
L 5670 640 
L 5670 1024 
L 3418 1024 
L 3418 1466 
L 5427 1466 
L 5427 3456 
L 3418 3456 
L 3418 3846 
L 6042 3846 
L 6042 4243 
L 3418 4243 
L 3418 4736 
C 4166 4794 4870 4870 5421 4966 
L 5165 5338 
C 4154 5158 2342 5037 851 4998 
C 896 4902 947 4730 954 4621 
C 1581 4634 2266 4659 2938 4698 
L 2938 4243 
L 371 4243 
L 371 3846 
L 2938 3846 
L 2938 3456 
L 1018 3456 
z
M 1485 2304 
L 2938 2304 
L 2938 1818 
L 1485 1818 
L 1485 2304 
z
M 3418 2304 
L 4941 2304 
L 4941 1818 
L 3418 1818 
L 3418 2304 
z
M 1485 3110 
L 2938 3110 
L 2938 2630 
L 1485 2630 
L 1485 3110 
z
M 3418 3110 
L 4941 3110 
L 4941 2630 
L 3418 2630 
L 3418 3110 
z
" transform="scale(0.015625)"/>
     </defs>
     <use xlink:href="#NotoSansCJKjp-Regular-76f8"/>
     <use xlink:href="#NotoSansCJKjp-Regular-5173" transform="translate(99.999985 0)"/>
     <use xlink:href="#NotoSansCJKjp-Regular-5f3a" transform="translate(199.999969 0)"/>
     <use xlink:href="#NotoSansCJKjp-Regular-ff0c" transform="translate(299.999954 0)"/>
     <use xlink:href="#NotoSansCJKjp-Regular-539f" transform="translate(399.999939 0)"/>
     <use xlink:href="#NotoSansCJKjp-Regular-5750" transform="translate(499.999924 0)"/>
     <use xlink:href="#NotoSansCJKjp-Regular-6807" transform="translate(599.999908 0)"/>
     <use xlink:href="#NotoSansCJKjp-Regular-65b9" transform="translate(699.999893 0)"/>
     <use xlink:href="#NotoSansCJKjp-Regular-5dee" transform="translate(799.999878 0)"/>
     <use xlink:href="#NotoSansCJKjp-Regular-4f4e" transform="translate(899.999863 0)"/>
     <use xlink:href="#NotoSansCJKjp-Regular-4f30" transform="translate(999.999847 0)"/>
     <use xlink:href="#NotoSansCJKjp-Regular-66f4" transform="translate(1099.999832 0)"/>
     <use xlink:href="#NotoSansCJKjp-Regular-91cd" transform="translate(1199.999817 0)"/>
    </g>
   </g>
  </g>
 </g>
 <defs>
  <clipPath id="paf50507c9d">
   <rect x="44.742656" y="23.706375" width="275.74" height="228.424"/>
  </clipPath>
  <clipPath id="p8fc6c49356">
   <rect x="370.362656" y="23.706375" width="275.74" height="228.424"/>
  </clipPath>
 </defs>
</svg>
